<?xml version="1.0" standalone="no"?>
<!DOCTYPE svg PUBLIC "-//W3C//DTD SVG 20010904//EN"
 "http://www.w3.org/TR/2001/REC-SVG-20010904/DTD/svg10.dtd">
<svg version="1.0" xmlns="http://www.w3.org/2000/svg"
 width="1080.000000pt" height="1080.000000pt" viewBox="0 0 1080.000000 1080.000000"
 preserveAspectRatio="xMidYMid meet">

<g transform="translate(0.000000,1080.000000) scale(0.100000,-0.100000)"
fill="#000000" stroke="none">
<path d="M5460 8840 c-36 -18 -90 -44 -120 -59 -30 -14 -56 -29 -58 -33 -2 -5
-12 -8 -23 -8 -10 0 -19 -4 -19 -8 0 -5 -19 -17 -42 -27 -74 -32 -130 -73
-215 -155 -44 -44 -78 -80 -75 -80 4 0 -12 -17 -35 -38 -23 -20 -51 -54 -61
-75 -11 -21 -24 -38 -29 -37 -4 0 -10 -10 -11 -22 -2 -13 -13 -33 -24 -45 -20
-21 -37 -72 -42 -126 -3 -33 9 -46 17 -17 3 11 12 20 21 20 9 0 16 6 16 14 0
8 6 21 13 28 6 7 34 40 60 73 86 106 160 186 227 243 36 30 64 60 62 66 -2 6
0 8 4 4 3 -4 32 10 63 31 65 45 142 89 261 151 134 69 191 61 250 -35 18 -30
52 -231 51 -297 -1 -15 4 -30 9 -33 6 -4 8 -16 4 -27 -4 -14 -2 -18 5 -14 6 4
11 2 11 -3 0 -6 4 -11 9 -11 16 0 34 92 37 185 4 150 -38 274 -112 330 -29 22
-49 28 -112 32 -72 5 -81 3 -142 -27z"/>
<path d="M7695 8390 c-55 -9 -149 -29 -210 -44 -60 -15 -146 -34 -190 -42
-186 -34 -253 -45 -300 -50 -27 -2 -63 -7 -80 -10 -16 -3 -68 -12 -115 -20
-123 -22 -308 -25 -296 -5 3 4 -11 5 -30 3 -19 -2 -47 0 -62 6 -52 20 -145 28
-417 36 -93 2 -178 8 -187 11 -9 4 -23 3 -30 -1 -7 -5 -24 -10 -38 -11 -164
-20 -229 -41 -243 -78 -3 -7 -20 -16 -37 -20 -42 -9 -32 -30 14 -29 29 1 36
-2 36 -17 0 -16 4 -17 26 -8 26 9 64 4 64 -9 -1 -9 -77 -62 -88 -62 -13 0 -82
-80 -105 -120 -11 -19 -26 -42 -32 -50 -45 -55 -68 -118 -73 -192 -3 -48 -1
-78 5 -78 6 0 8 -11 5 -25 -2 -14 0 -25 5 -25 14 0 48 44 45 58 -2 7 2 11 9
10 6 -2 21 15 33 37 38 69 131 170 191 207 22 14 46 33 54 42 7 9 19 16 25 16
7 0 25 18 42 40 16 22 35 40 43 40 12 0 49 25 93 64 10 9 29 18 43 22 14 3 25
12 25 20 0 8 8 14 18 14 9 1 44 3 76 6 61 6 176 -12 176 -27 0 -5 -6 -9 -13
-9 -21 0 -88 -40 -145 -86 -30 -24 -58 -44 -62 -44 -5 0 -12 -9 -15 -20 -4
-11 -18 -31 -32 -44 -18 -17 -24 -30 -19 -42 5 -14 9 -15 15 -5 7 11 12 10 31
-1 18 -10 24 -10 27 0 3 6 13 12 23 12 9 0 23 7 30 15 6 8 22 17 33 21 12 3
31 14 42 24 11 10 56 33 99 51 44 18 86 39 95 48 31 31 97 45 160 35 61 -10
140 -1 152 17 5 8 8 8 13 0 10 -16 72 -13 90 4 8 8 17 11 20 6 3 -5 52 1 111
14 105 23 113 24 118 26 1 0 18 3 37 5 62 6 544 127 614 154 15 5 40 10 55 10
15 0 31 4 37 9 12 13 62 19 206 27 l118 6 10 -28 c13 -34 11 -199 -3 -234 -10
-27 -12 -30 -53 -130 -14 -36 -27 -74 -27 -85 -1 -11 -9 -26 -19 -33 -10 -7
-18 -18 -18 -24 0 -5 -9 -23 -21 -39 -11 -16 -18 -33 -15 -38 4 -5 3 -11 -1
-13 -5 -1 -26 -38 -48 -81 -22 -44 -43 -81 -47 -83 -4 -3 -12 -23 -18 -44 -6
-22 -16 -39 -23 -37 -7 1 -12 -5 -13 -13 0 -8 -3 -22 -7 -30 -13 -35 -15 -60
-4 -60 7 0 5 -5 -3 -10 -13 -8 -12 -10 3 -10 9 0 17 -7 17 -15 0 -8 9 -15 20
-15 15 0 20 -7 20 -27 0 -16 7 -37 15 -47 11 -14 12 -23 4 -32 -14 -17 -3 -34
21 -34 20 0 36 -33 24 -51 -4 -7 -3 -9 3 -6 6 4 14 -5 18 -20 3 -15 14 -33 23
-40 11 -8 12 -12 5 -13 -17 0 -16 -18 2 -36 8 -8 12 -21 8 -30 -3 -8 2 -21 12
-28 10 -7 15 -18 12 -23 -4 -6 0 -25 9 -42 9 -17 17 -46 18 -64 2 -18 8 -48
14 -67 15 -43 31 -201 23 -215 -3 -5 -4 -18 -3 -27 2 -10 -2 -27 -8 -39 -9
-16 -14 -18 -23 -9 -9 10 -9 14 1 17 6 3 9 9 6 15 -3 5 -15 -5 -27 -24 -11
-19 -22 -28 -24 -20 -6 16 -30 15 -40 -1 -4 -8 -30 -22 -58 -32 -27 -11 -59
-25 -71 -32 -12 -7 -47 -20 -80 -29 -32 -8 -61 -18 -64 -23 -4 -6 -118 -44
-175 -57 -11 -3 -36 -11 -55 -19 -19 -8 -89 -33 -155 -55 -66 -23 -156 -59
-200 -80 -44 -21 -92 -42 -106 -45 -32 -8 -55 -46 -44 -72 5 -10 8 -21 7 -24
-1 -4 18 -3 41 2 40 9 70 21 147 60 40 20 188 79 210 84 8 2 44 16 80 30 68
28 158 52 222 61 21 2 48 10 58 16 16 10 23 10 37 -5 16 -16 16 -17 -9 -17
-15 0 -30 -4 -33 -10 -3 -5 -1 -10 5 -10 7 0 10 -7 6 -15 -4 -12 3 -15 32 -15
21 0 43 5 49 11 6 6 28 11 49 12 22 0 45 5 53 11 11 8 15 8 19 -2 8 -24 132
65 132 95 0 7 5 13 10 13 6 0 10 -7 10 -16 0 -8 7 -23 16 -32 17 -17 17 -24
-6 -197 -14 -108 -17 -120 -65 -212 -40 -77 -45 -83 -45 -53 0 25 -3 30 -12
22 -7 -5 -33 -15 -58 -22 -25 -7 -63 -21 -85 -31 -95 -43 -136 -59 -149 -59
-8 0 -16 -6 -19 -14 -3 -8 -21 -16 -39 -18 -20 -2 -32 -8 -30 -16 1 -7 -6 -15
-15 -19 -10 -4 -21 -11 -25 -17 -5 -7 -8 -6 -8 4 0 11 -3 11 -11 -3 -15 -25
-4 -34 67 -54 80 -22 202 -21 237 2 14 9 31 14 37 10 5 -3 10 1 10 9 0 9 9 16
20 16 11 0 20 6 20 14 0 8 9 24 20 37 18 23 19 23 19 4 0 -11 -6 -28 -14 -39
-8 -10 -17 -39 -21 -65 -4 -25 -12 -50 -18 -54 -8 -6 -7 -10 2 -14 17 -7 15
-26 -3 -20 -10 5 -16 -4 -20 -31 -8 -46 -35 -112 -46 -112 -14 0 -69 -81 -69
-102 0 -55 115 21 199 132 14 19 36 46 47 59 l22 23 48 -33 c27 -18 64 -47 84
-65 50 -45 101 -62 137 -44 15 7 33 13 38 12 10 -2 35 43 35 63 0 25 -130 182
-189 229 -33 27 -61 54 -61 59 0 5 15 53 34 106 56 156 85 305 87 446 1 117
-3 112 98 108 l89 -4 4 36 c2 21 -1 40 -8 46 -7 6 -52 14 -101 17 l-87 7 -13
80 c-7 44 -18 89 -24 100 -5 11 -11 46 -13 77 -2 31 -6 60 -9 65 -3 4 -8 31
-11 58 -6 58 -52 215 -66 229 -6 6 -10 16 -10 22 0 33 -102 223 -142 265 -43
46 -54 83 -28 99 13 8 90 128 90 140 0 6 4 10 8 10 5 0 17 18 27 40 10 22 22
40 27 40 4 0 8 8 8 18 0 9 9 32 20 50 11 18 20 41 20 50 0 10 7 27 15 38 8 10
15 27 15 37 0 9 5 17 11 17 7 0 9 9 6 22 -4 13 0 29 8 39 9 8 25 62 36 118 19
91 20 113 10 188 -12 98 -25 122 -84 161 -39 25 -50 27 -152 28 -63 1 -153 -6
-210 -16z m130 -1060 c3 -5 -1 -10 -10 -10 -9 0 -13 5 -10 10 3 6 8 10 10 10
2 0 7 -4 10 -10z"/>
<path d="M7732 8159 c7 -4 -4 -10 -25 -14 -20 -4 -37 -12 -37 -17 0 -6 -11 -7
-25 -4 -18 5 -31 0 -47 -16 -12 -12 -30 -23 -40 -23 -10 -1 -25 -10 -34 -21
-8 -10 -13 -13 -9 -6 9 18 -9 14 -35 -8 -13 -11 -29 -20 -36 -20 -7 0 -46 -15
-86 -34 -141 -66 -236 -106 -248 -106 -8 0 -21 -6 -29 -13 -9 -8 -36 -22 -61
-31 -104 -40 -158 -69 -154 -80 3 -8 -4 -12 -18 -11 -13 1 -28 -5 -35 -14 -15
-19 -17 -34 -3 -26 6 3 10 2 10 -3 0 -5 11 -8 25 -7 18 2 25 -2 26 -13 0 -11
2 -12 6 -4 6 15 49 16 58 2 4 -6 12 -10 18 -9 7 1 42 1 78 0 53 -1 68 -5 73
-18 4 -9 1 -20 -6 -25 -10 -6 -10 -10 2 -19 13 -9 12 -10 -2 -5 -10 3 -20 1
-23 -4 -4 -6 2 -10 12 -10 11 0 24 -5 31 -12 9 -9 12 -9 12 0 0 7 7 12 15 12
24 0 95 49 95 65 0 8 5 15 10 15 20 0 -2 55 -32 81 l-30 27 39 12 c143 47 329
140 428 216 157 121 176 146 108 149 -24 0 -38 -2 -31 -6z"/>
<path d="M4512 8074 c-14 -10 -22 -25 -22 -45 0 -18 -4 -28 -10 -24 -5 3 -10
-1 -10 -10 0 -9 3 -14 8 -12 4 3 8 -9 9 -26 2 -25 0 -29 -8 -17 -9 12 -10 12
-5 -3 3 -10 6 -20 6 -23 0 -2 6 -1 13 2 7 2 18 -7 25 -23 10 -25 11 -21 7 29
-2 32 0 60 6 63 5 4 9 -2 9 -12 1 -14 4 -13 15 7 7 14 16 24 19 22 4 -2 12 -2
18 0 9 3 9 14 0 46 -14 47 -39 55 -80 26z"/>
<path d="M5266 8045 c-3 -10 -13 -14 -23 -11 -24 7 -56 -37 -48 -64 7 -23 43
-27 51 -5 4 8 11 15 18 15 6 0 17 9 24 20 10 17 10 24 -1 41 -13 17 -15 18
-21 4z"/>
<path d="M4626 8035 c-3 -8 -1 -17 3 -20 5 -3 11 2 15 10 3 8 1 17 -3 20 -5 3
-11 -2 -15 -10z"/>
<path d="M5177 7963 c-4 -3 -7 -19 -7 -35 0 -28 1 -29 17 -12 12 12 14 19 6
21 -7 3 -9 11 -6 19 5 15 1 18 -10 7z"/>
<path d="M4470 7865 c0 -13 5 -27 11 -30 9 -6 15 6 23 41 0 4 -7 8 -16 10 -13
1 -18 -5 -18 -21z"/>
<path d="M4410 7843 c-8 -4 -21 -12 -28 -20 -22 -21 10 -46 48 -38 33 7 37 14
18 33 -9 9 -9 12 3 12 12 0 12 2 -1 10 -17 11 -19 11 -40 3z"/>
<path d="M3461 7694 c0 -11 3 -14 6 -6 3 7 2 16 -1 19 -3 4 -6 -2 -5 -13z"/>
<path d="M3441 7692 c-1 -7 -6 -10 -12 -6 -7 4 -6 -3 2 -17 11 -21 14 -21 17
-6 2 9 1 23 -1 30 -4 9 -6 9 -6 -1z"/>
<path d="M3393 7658 c1 -7 6 -16 12 -20 5 -4 10 -15 10 -25 0 -10 9 -19 20
-21 16 -3 17 -1 5 7 -10 7 -11 11 -2 11 6 0 12 5 12 11 0 5 -4 8 -8 5 -5 -3
-15 6 -22 19 -14 26 -32 34 -27 13z"/>
<path d="M4317 7597 c-15 -17 -48 -63 -74 -102 -26 -38 -55 -82 -65 -97 -10
-15 -18 -34 -18 -42 0 -8 -6 -21 -14 -29 -18 -17 -66 -134 -66 -158 0 -10 -4
-20 -9 -23 -5 -3 -16 -50 -26 -103 -9 -54 -20 -111 -25 -128 -4 -16 -9 -58 -9
-92 -1 -34 -6 -76 -11 -94 -5 -17 -7 -36 -4 -41 4 -5 -2 -27 -11 -48 -19 -42
-57 -63 -96 -53 -15 4 -20 3 -15 -5 4 -7 14 -12 22 -12 13 0 12 -5 -4 -27 -10
-16 -26 -50 -36 -78 -10 -27 -21 -59 -26 -70 -15 -35 -19 -82 -10 -111 6 -21
9 -23 9 -9 1 13 4 16 9 8 5 -8 15 3 27 32 11 25 23 45 26 45 4 0 14 21 24 48
25 66 52 109 73 114 15 4 19 -1 18 -21 0 -77 4 -100 18 -95 10 4 12 -2 8 -23
-3 -16 -1 -24 4 -20 5 5 11 60 14 124 4 86 9 118 20 126 8 7 22 23 31 37 15
23 15 26 0 40 -8 8 -19 14 -23 12 -12 -3 18 182 39 238 3 8 7 27 9 42 2 14 11
48 20 75 10 26 18 57 19 68 1 11 8 19 14 18 6 -2 11 7 11 20 0 39 12 67 27 67
10 0 13 6 9 17 -8 20 34 103 52 103 7 0 11 4 7 10 -6 10 10 43 38 74 9 11 17
28 17 38 0 9 9 22 20 28 11 6 18 15 15 20 -3 5 -1 11 5 15 17 10 11 38 -13 67
l-22 27 -28 -32z"/>
<path d="M3373 7614 c3 -4 0 -16 -8 -27 -8 -11 -12 -33 -9 -51 3 -25 3 -27 -5
-11 -9 18 -10 18 -10 -5 -1 -15 -6 -31 -13 -38 -9 -9 -9 -12 0 -12 7 0 12 -5
12 -11 0 -5 -4 -8 -9 -5 -4 3 -14 -14 -21 -37 -6 -23 -16 -52 -21 -64 -5 -13
-6 -30 -2 -39 3 -9 2 -19 -3 -23 -17 -11 -38 -115 -25 -119 6 -2 11 -8 11 -13
0 -6 -4 -7 -10 -4 -5 3 -10 2 -10 -3 0 -6 6 -12 14 -15 9 -4 12 -14 9 -25 -2
-11 0 -23 6 -26 7 -5 11 4 11 23 0 17 5 31 11 31 5 0 8 4 4 9 -3 5 2 17 11 25
20 20 32 96 15 96 -6 0 -11 -9 -11 -20 0 -11 -4 -20 -10 -20 -23 0 4 50 28 51
10 0 12 3 5 6 -9 3 -9 10 -3 24 6 10 14 27 19 37 4 9 4 27 0 40 -5 14 -5 22 2
22 6 0 8 7 5 16 -4 10 0 18 13 21 22 6 35 54 18 65 -9 6 -9 8 1 8 6 0 12 5 12
11 0 5 -5 7 -11 3 -7 -4 -10 -1 -7 7 3 8 11 15 19 15 8 1 18 2 22 3 9 1 -50
61 -60 61 -3 0 -3 -3 0 -6z m17 -38 c0 -3 -4 -8 -10 -11 -5 -3 -10 -1 -10 4 0
6 5 11 10 11 6 0 10 -2 10 -4z m-103 -418 c-2 -13 -4 -3 -4 22 0 25 2 35 4 23
2 -13 2 -33 0 -45z"/>
<path d="M7292 7593 c6 -8 8 -17 4 -20 -4 -4 -11 -1 -16 7 -9 13 -10 13 -10 0
0 -24 13 -37 43 -42 29 -6 40 18 12 28 -8 4 -15 11 -15 16 0 6 7 7 16 4 10 -4
14 -1 12 6 -3 7 -16 13 -31 13 -20 1 -24 -2 -15 -12z"/>
<path d="M5867 7500 c3 -11 0 -20 -5 -20 -6 0 -16 -19 -22 -41 -9 -34 -9 -44
3 -56 13 -13 16 -8 27 39 7 29 17 58 22 65 12 14 2 33 -17 33 -8 0 -11 -7 -8
-20z"/>
<path d="M4492 7488 c-15 -15 -16 -68 -2 -68 6 0 10 -8 10 -19 0 -10 9 -21 20
-24 18 -5 19 -2 13 36 -9 58 -27 89 -41 75z"/>
<path d="M3197 7437 c-8 -6 -17 -23 -19 -37 -2 -14 -9 -24 -15 -23 -6 1 -14
-4 -17 -12 -3 -8 -1 -15 4 -15 6 0 10 -6 10 -14 0 -17 -46 -67 -54 -59 -3 4
-6 1 -6 -5 0 -7 5 -12 10 -12 6 0 10 -4 10 -10 0 -5 -8 -10 -19 -10 -14 0 -17
-6 -13 -25 2 -14 -1 -31 -7 -39 -6 -7 -8 -22 -4 -31 5 -14 3 -17 -10 -12 -9 3
-17 2 -17 -2 0 -5 6 -12 13 -14 7 -4 6 -6 -4 -6 -20 -1 -31 -25 -18 -38 6 -6
4 -14 -6 -23 -8 -7 -15 -24 -15 -37 0 -18 -4 -24 -15 -19 -16 6 -18 -5 -9 -42
4 -14 12 -21 20 -18 8 3 14 1 14 -5 0 -6 -11 -9 -25 -7 -31 4 -34 -14 -4 -29
19 -10 25 -9 35 6 13 17 56 134 76 201 6 19 17 49 26 65 9 17 15 34 14 39 -2
4 6 35 18 68 11 32 18 63 15 68 -3 4 3 11 12 14 14 6 15 9 4 15 -10 7 -10 14
4 41 19 36 16 46 -8 27z"/>
<path d="M5920 7423 c0 -5 5 -15 10 -23 9 -13 11 -13 19 0 5 8 7 18 5 22 -6
10 -34 11 -34 1z"/>
<path d="M2908 7279 c-15 -4 -29 -4 -32 -1 -3 3 -6 -4 -6 -16 0 -12 -4 -22
-10 -22 -5 0 -10 -6 -10 -14 0 -7 -11 -25 -25 -40 -27 -29 -31 -41 -15 -51 8
-5 7 -11 -1 -21 -6 -7 -15 -11 -20 -8 -5 3 -9 0 -9 -5 0 -6 5 -11 10 -11 6 0
10 -5 10 -11 0 -6 -6 -9 -14 -6 -16 6 -33 -44 -22 -62 4 -5 1 -13 -5 -17 -9
-5 -7 -11 6 -21 17 -12 17 -13 2 -13 -13 0 -17 -9 -18 -37 -1 -21 -1 -41 0
-45 0 -5 -3 -8 -9 -8 -5 0 -7 -7 -4 -15 4 -8 2 -15 -4 -15 -6 0 -8 -9 -5 -19
3 -11 0 -28 -7 -38 -11 -17 -11 -17 -6 0 4 11 2 16 -4 12 -6 -4 -8 -21 -4 -41
4 -21 2 -34 -4 -34 -7 0 -8 -11 -1 -32 11 -41 11 -51 0 -43 -16 9 -23 -15 -9
-32 10 -13 10 -17 1 -20 -7 -3 -13 -13 -13 -23 0 -10 -6 -21 -12 -23 -10 -4
-10 -8 1 -15 11 -8 11 -10 0 -14 -8 -3 -13 -19 -12 -44 1 -21 -3 -44 -8 -50
-6 -8 -4 -14 6 -18 21 -8 19 -46 -2 -46 -15 0 -16 -2 -3 -10 9 -6 11 -13 5
-17 -18 -14 -17 -36 0 -29 15 5 16 0 10 -36 -4 -24 -11 -45 -14 -48 -4 -3 -7
-18 -6 -34 1 -21 9 -32 26 -38 l24 -10 -30 -13 -30 -13 27 -1 c33 -1 42 -22
16 -37 -19 -10 -19 -12 6 -39 19 -20 23 -31 15 -36 -7 -4 -1 -6 14 -6 24 2 25
3 9 22 -9 11 -21 23 -26 27 -5 3 -2 14 7 23 10 9 17 17 17 18 0 1 -4 17 -9 34
-8 27 -6 35 7 43 16 9 16 9 1 10 -17 0 -34 28 -24 38 3 3 5 0 5 -6 0 -7 5 -12
10 -12 14 0 12 27 -2 33 -10 3 -10 9 0 26 16 28 15 32 -5 24 -17 -6 -17 -5 0
14 10 12 18 32 17 45 -1 13 -1 28 0 33 6 24 4 73 -2 69 -4 -2 -9 0 -12 5 -3 5
1 11 9 15 20 7 20 66 0 66 -8 0 -15 6 -15 13 0 21 12 28 27 15 12 -10 14 -6
11 23 -2 22 -8 33 -17 31 -9 -2 -11 3 -7 13 3 9 6 21 6 26 0 5 4 9 10 9 5 0 7
-7 4 -15 -4 -8 -2 -15 3 -15 5 0 17 39 26 88 9 48 19 101 22 117 6 31 39 149
55 198 5 16 6 35 3 43 -3 8 0 14 6 14 6 0 11 9 11 21 0 11 5 17 10 14 18 -11
11 17 -7 31 -16 12 -16 13 -1 14 9 0 18 3 21 8 2 4 2 1 1 -5 -4 -15 22 -17 31
-3 4 6 11 8 16 5 5 -4 2 -17 -7 -30 -15 -23 -15 -24 9 -12 15 7 23 17 19 26
-3 9 -1 12 6 7 7 -4 12 -2 12 3 0 20 3 26 19 38 14 11 14 12 -1 13 -12 0 -18
8 -18 23 0 21 -19 62 -20 42 0 -6 -3 -6 -8 1 -4 7 -18 8 -34 3z m-138 -469 c0
-5 -4 -10 -10 -10 -5 0 -10 5 -10 10 0 6 5 10 10 10 6 0 10 -4 10 -10z m-95
-609 c3 -5 1 -12 -5 -16 -5 -3 -10 1 -10 9 0 18 6 21 15 7z"/>
<path d="M3880 7130 c0 -5 -7 -10 -15 -10 -8 0 -15 -5 -15 -10 0 -7 6 -7 20 0
18 10 28 30 15 30 -3 0 -5 -4 -5 -10z"/>
<path d="M3845 7000 c3 -5 8 -10 11 -10 2 0 4 5 4 10 0 6 -5 10 -11 10 -5 0
-7 -4 -4 -10z"/>
<path d="M3821 6944 c0 -11 3 -14 6 -6 3 7 2 16 -1 19 -3 4 -6 -2 -5 -13z"/>
<path d="M3825 6880 c-10 -11 -15 -23 -12 -27 4 -3 7 -1 7 5 0 7 7 12 15 12 8
0 15 7 15 15 0 20 -3 19 -25 -5z"/>
<path d="M3898 6873 c7 -3 16 -2 19 1 4 3 -2 6 -13 5 -11 0 -14 -3 -6 -6z"/>
<path d="M3809 6827 c15 -19 41 -23 41 -7 0 6 -4 10 -9 10 -5 0 -18 3 -28 7
-16 6 -16 5 -4 -10z"/>
<path d="M3887 6784 c3 -38 1 -54 -6 -49 -6 3 -11 2 -11 -4 0 -5 6 -12 13 -14
10 -4 10 -6 0 -6 -27 -2 -11 -21 17 -21 21 0 30 5 30 16 0 8 -4 12 -10 9 -5
-3 -10 -2 -10 4 0 5 5 13 11 17 8 5 6 10 -5 16 -18 10 -22 58 -5 58 8 0 8 5
-1 15 -22 26 -27 17 -23 -41z"/>
<path d="M3788 6803 c7 -3 16 -2 19 1 4 3 -2 6 -13 5 -11 0 -14 -3 -6 -6z"/>
<path d="M3910 6786 c0 -9 5 -16 10 -16 6 0 10 4 10 9 0 6 -4 13 -10 16 -5 3
-10 -1 -10 -9z"/>
<path d="M3790 6780 c0 -5 5 -10 10 -10 6 0 10 5 10 10 0 6 -4 10 -10 10 -5 0
-10 -4 -10 -10z"/>
<path d="M3820 6760 c0 -5 -8 -10 -17 -10 -13 0 -14 -3 -6 -11 12 -12 0 -46
-22 -61 -5 -4 -6 -10 -3 -14 10 -10 37 20 53 60 18 42 18 46 5 46 -5 0 -10 -4
-10 -10z"/>
<path d="M4225 6730 c-27 -11 -58 -17 -68 -14 -16 5 -18 2 -12 -16 5 -15 2
-26 -6 -31 -11 -7 -11 -9 3 -9 9 0 18 5 20 11 2 5 30 13 63 15 123 11 155 16
155 25 0 5 -8 9 -18 9 -10 0 -27 7 -38 15 -24 18 -37 18 -99 -5z"/>
<path d="M4410 6730 c0 -6 6 -13 14 -16 8 -3 12 -12 9 -21 -5 -12 -1 -14 18
-8 29 9 29 9 56 0 13 -4 20 -11 17 -16 -3 -5 2 -9 11 -9 12 0 15 5 11 16 -3 9
-6 18 -6 20 0 2 -6 4 -13 4 -7 0 -18 5 -25 12 -6 6 -20 12 -29 13 -10 1 -28 5
-40 9 -15 5 -23 3 -23 -4z"/>
<path d="M3880 6661 c0 -22 21 -61 32 -61 9 0 9 3 -1 9 -13 8 -13 12 0 27 9
11 9 15 2 10 -8 -4 -13 -1 -13 8 0 9 -4 16 -10 16 -5 0 -10 -4 -10 -9z"/>
<path d="M4572 6654 c10 -10 20 -16 22 -13 3 3 -5 11 -17 18 -21 13 -21 12 -5
-5z"/>
<path d="M4400 6605 c-12 -35 -11 -36 42 -86 39 -37 50 -52 40 -58 -11 -6 -9
-15 7 -42 41 -67 21 -106 -57 -107 -40 -1 -53 3 -72 23 -13 14 -29 25 -37 25
-16 0 -55 -75 -61 -120 -9 -63 -1 -215 13 -260 11 -34 85 -90 120 -90 8 0 21
-7 30 -16 9 -9 19 -14 22 -10 3 3 11 2 17 -3 18 -14 66 -22 66 -12 0 6 17 13
37 17 69 13 162 76 163 111 0 7 6 16 13 20 23 14 47 103 47 175 0 39 -4 68
-10 68 -5 0 -10 7 -10 15 0 8 -12 40 -26 72 -14 32 -26 66 -27 75 -1 9 -5 14
-9 12 -4 -3 -8 4 -8 14 0 21 -129 136 -207 185 -58 37 -79 35 -93 -8z m113
-387 c3 -10 7 -10 19 -1 20 17 28 7 28 -33 0 -28 -4 -35 -27 -40 -37 -10 -67
26 -51 62 12 26 24 31 31 12z"/>
<path d="M4610 6620 c0 -5 5 -10 10 -10 6 0 10 5 10 10 0 6 -4 10 -10 10 -5 0
-10 -4 -10 -10z"/>
<path d="M5922 6598 c3 -7 15 -15 28 -16 21 -4 22 -2 7 12 -19 19 -40 21 -35
4z"/>
<path d="M5990 6595 c0 -8 3 -14 8 -13 4 1 20 -4 36 -11 16 -6 37 -9 47 -6 11
4 19 2 19 -4 0 -6 6 -11 14 -11 8 0 17 -6 19 -12 4 -10 6 -10 6 0 1 8 14 1 32
-17 17 -17 38 -31 47 -31 10 0 23 -9 30 -20 7 -11 18 -20 25 -20 6 0 21 -13
32 -29 10 -16 23 -27 27 -25 4 3 8 1 8 -5 0 -5 -6 -12 -12 -14 -9 -4 -8 -6 2
-6 8 -1 26 -17 39 -36 13 -19 27 -35 31 -35 5 0 11 -13 15 -29 3 -16 12 -35
20 -41 8 -6 17 -25 20 -41 4 -16 10 -29 15 -29 6 0 25 -74 22 -91 -1 -3 5 -44
13 -91 14 -89 13 -286 -1 -297 -5 -3 -10 -18 -12 -33 -2 -15 -14 -48 -27 -74
-13 -26 -22 -51 -19 -56 3 -4 1 -8 -4 -8 -6 0 -17 -18 -26 -40 -9 -23 -23 -43
-31 -46 -22 -9 -18 -24 5 -24 10 0 25 10 31 22 15 28 35 48 47 48 5 0 19 24
33 53 13 28 26 54 30 57 20 18 55 187 58 282 1 40 4 75 7 77 2 2 39 5 82 5
l77 1 3 42 c3 39 2 42 -30 49 -18 5 -57 8 -87 9 l-54 0 -35 88 c-29 73 -39 88
-54 84 -11 -3 -18 0 -18 9 0 8 5 14 12 14 6 0 2 9 -10 20 -12 12 -22 25 -22
30 0 4 -16 18 -36 31 -30 18 -33 24 -20 31 13 7 14 12 3 30 -17 30 -45 58 -92
93 -22 16 -48 37 -58 47 -10 10 -27 18 -37 18 -11 0 -20 5 -20 10 0 6 -9 10
-20 10 -10 0 -35 8 -55 17 -31 15 -37 15 -45 3 -6 -8 -10 -10 -10 -4 0 12 -43
34 -65 34 -8 0 -15 -7 -15 -15z"/>
<path d="M5730 6570 c0 -5 5 -10 10 -10 6 0 10 5 10 10 0 6 -4 10 -10 10 -5 0
-10 -4 -10 -10z"/>
<path d="M4730 6491 c0 -6 4 -12 9 -15 5 -3 12 -25 15 -48 8 -53 26 -78 52
-73 10 2 21 4 24 4 3 1 6 10 6 21 0 13 -5 19 -13 16 -10 -4 -12 1 -7 18 4 16
1 25 -10 29 -9 4 -16 14 -16 23 0 10 -5 14 -15 10 -9 -3 -18 1 -21 9 -7 17
-24 20 -24 6z"/>
<path d="M6088 6475 c-2 -3 -67 -23 -144 -44 -245 -70 -354 -112 -354 -138 0
-7 11 -25 25 -39 30 -30 31 -36 5 -59 -11 -10 -20 -25 -20 -34 0 -13 -2 -14
-9 -2 -11 16 -31 -48 -36 -109 -1 -19 -5 -51 -9 -70 -6 -28 -3 -40 13 -59 12
-14 19 -32 16 -41 -3 -11 4 -21 20 -30 14 -7 25 -20 25 -28 0 -15 34 -49 78
-79 34 -24 131 -40 247 -42 92 -2 105 0 105 15 0 10 5 14 15 10 9 -3 27 7 45
24 17 17 42 37 55 46 28 18 88 120 79 135 -3 5 0 16 6 24 15 18 5 133 -16 183
-11 28 -16 31 -32 23 -10 -5 -24 -16 -31 -24 -6 -8 -31 -20 -55 -27 -38 -10
-48 -9 -89 10 -25 12 -49 30 -52 41 -8 23 18 79 51 110 30 28 30 40 3 57 -25
16 -19 23 42 46 25 9 56 28 69 41 l23 24 -27 10 c-14 6 -26 15 -26 21 0 10
-13 14 -22 5z m-164 -415 c49 -18 25 -90 -30 -90 -13 0 -24 5 -24 10 0 6 -7
10 -15 10 -8 0 -13 6 -11 13 3 6 7 24 10 40 7 29 26 34 70 17z"/>
<path d="M5060 6380 c0 -5 5 -10 10 -10 6 0 10 5 10 10 0 6 -4 10 -10 10 -5 0
-10 -4 -10 -10z"/>
<path d="M5010 6355 c0 -8 -9 -15 -20 -15 -11 0 -20 5 -20 12 0 6 -7 4 -18 -5
-10 -10 -24 -17 -30 -17 -7 0 -12 -8 -12 -17 0 -10 -7 -27 -15 -37 -15 -19
-15 -19 -15 1 0 12 -8 23 -19 26 -15 3 -17 0 -13 -16 3 -13 1 -18 -5 -14 -15
9 -23 -16 -23 -74 0 -57 19 -66 52 -24 11 14 23 23 28 20 4 -3 10 6 12 20 4
17 1 25 -9 25 -12 0 -12 3 1 16 9 8 16 20 16 25 0 5 8 9 18 9 15 -1 15 -2 -2
-15 -11 -8 -17 -17 -15 -19 3 -3 22 12 44 33 22 21 45 37 50 35 6 -2 15 7 22
21 10 22 9 25 -8 25 -10 0 -19 -7 -19 -15z m-30 -35 c0 -5 -4 -10 -10 -10 -5
0 -10 5 -10 10 0 6 5 10 10 10 6 0 10 -4 10 -10z"/>
<path d="M5148 6343 c7 -3 16 -2 19 1 4 3 -2 6 -13 5 -11 0 -14 -3 -6 -6z"/>
<path d="M6430 6340 c0 -5 5 -10 11 -10 5 0 7 5 4 10 -3 6 -8 10 -11 10 -2 0
-4 -4 -4 -10z"/>
<path d="M4821 6324 c0 -11 3 -14 6 -6 3 7 2 16 -1 19 -3 4 -6 -2 -5 -13z"/>
<path d="M5200 6300 c0 -13 5 -18 15 -14 12 5 13 10 4 20 -15 19 -19 18 -19
-6z"/>
<path d="M5220 6260 c0 -11 5 -20 10 -20 6 0 10 -8 10 -17 0 -15 2 -16 10 -3
7 11 5 18 -6 27 -9 6 -13 16 -9 22 3 6 1 11 -4 11 -6 0 -11 -9 -11 -20z"/>
<path d="M2715 6240 c-3 -5 -1 -10 4 -10 6 0 11 5 11 10 0 6 -2 10 -4 10 -3 0
-8 -4 -11 -10z"/>
<path d="M5227 6195 c3 -22 7 -48 8 -58 2 -22 41 -51 50 -37 4 6 5 20 4 33 -2
12 0 28 4 35 5 7 3 12 -6 12 -8 0 -17 -7 -21 -15 -6 -17 -26 -20 -26 -4 0 5 4
8 9 5 10 -6 25 43 16 52 -3 3 -5 -2 -5 -11 0 -24 -19 -21 -30 6 -7 16 -8 12
-3 -18z m53 -75 c0 -5 -5 -10 -11 -10 -5 0 -7 5 -4 10 3 6 8 10 11 10 2 0 4
-4 4 -10z"/>
<path d="M5391 6214 c0 -11 3 -14 6 -6 3 7 2 16 -1 19 -3 4 -6 -2 -5 -13z"/>
<path d="M3808 6153 c7 -3 16 -2 19 1 4 3 -2 6 -13 5 -11 0 -14 -3 -6 -6z"/>
<path d="M3806 6065 c-5 -11 -8 -26 -7 -32 1 -7 -3 -13 -9 -13 -15 0 -12 -43
5 -76 8 -16 15 -46 15 -68 0 -26 8 -47 25 -68 14 -16 25 -33 25 -38 0 -15 -35
-23 -95 -22 -33 0 -49 -2 -35 -5 14 -2 29 -9 35 -14 5 -5 19 -9 32 -9 12 0 41
-7 64 -17 52 -20 66 -52 84 -189 9 -68 23 -123 43 -166 35 -77 122 -199 162
-228 16 -11 39 -37 51 -57 19 -31 21 -41 12 -74 -7 -27 -7 -40 1 -44 8 -3 7
-7 -1 -11 -7 -3 -13 -12 -13 -20 0 -7 -6 -11 -14 -8 -7 3 -16 -2 -20 -11 -4
-11 -12 -14 -26 -10 -14 4 -20 2 -20 -9 0 -10 6 -13 15 -10 19 8 19 -10 0 -26
-13 -10 -13 -15 0 -40 8 -15 20 -34 28 -42 7 -7 23 -28 36 -46 44 -63 78 -95
86 -81 6 9 11 6 16 -9 5 -12 16 -22 26 -22 14 0 15 2 4 9 -7 5 -10 14 -7 20
10 15 -3 53 -15 46 -5 -4 -9 5 -9 19 0 14 -4 26 -9 26 -5 0 -12 17 -16 37 -5
28 -3 40 9 49 9 6 16 17 16 25 1 18 24 49 37 49 5 0 7 14 5 31 -4 29 -3 31 19
24 13 -4 26 -11 29 -14 11 -15 69 -33 82 -25 7 4 10 4 6 -1 -11 -12 19 -36 37
-29 10 4 15 2 13 -7 -2 -8 4 -13 15 -13 9 1 17 -2 17 -7 0 -5 7 -5 17 -2 10 4
14 2 10 -4 -7 -11 26 -27 78 -39 17 -4 35 -10 40 -14 13 -10 170 -51 218 -57
20 -3 40 -9 43 -14 8 -13 42 -11 47 4 4 9 8 8 17 -3 9 -13 11 -12 8 5 -2 11
-10 20 -18 20 -8 0 -18 4 -22 9 -3 5 -17 11 -30 13 -13 2 -32 7 -43 13 -11 5
-40 14 -65 20 -25 6 -52 13 -60 15 -8 3 -42 12 -75 21 -33 9 -68 23 -77 31 -9
8 -25 13 -35 11 -10 -2 -26 5 -35 16 -10 10 -18 16 -18 12 0 -3 -10 0 -22 8
-13 8 -32 16 -43 18 -20 3 -31 10 -60 36 -8 7 -18 12 -22 11 -22 -4 -33 3 -33
21 0 11 -4 20 -10 20 -5 0 -36 26 -69 59 -33 32 -62 57 -64 55 -1 -2 -14 15
-27 36 -14 22 -31 40 -38 40 -7 0 -10 5 -7 11 4 6 -2 21 -14 33 -28 30 -100
179 -107 221 -5 33 12 58 25 38 12 -19 100 -52 105 -40 3 8 8 7 15 -3 7 -10
11 -11 11 -2 0 6 8 12 18 13 13 0 12 2 -5 9 -13 5 -23 14 -23 20 0 5 -6 10
-13 10 -7 0 -20 9 -29 20 -9 10 -35 31 -57 46 -70 46 -83 124 -56 354 5 41 3
63 -9 85 -14 27 -16 28 -16 8 0 -14 -6 -23 -15 -23 -8 0 -14 -3 -13 -7 4 -15
-24 -83 -34 -83 -5 0 -9 -12 -8 -27 3 -47 -1 -119 -7 -106 -2 7 -4 15 -4 18 1
3 -14 19 -33 35 -33 29 -53 70 -35 70 17 0 9 47 -12 74 -14 18 -19 34 -15 51
4 14 2 25 -3 25 -5 0 -11 8 -13 18 -3 15 -5 15 -12 -3z m607 -1130 c-3 -9 -8
-14 -10 -11 -3 3 -2 9 2 15 9 16 15 13 8 -4z"/>
<path d="M6388 6058 c9 -9 9 -15 0 -25 -18 -22 -15 -67 5 -82 24 -18 29 -11
29 43 0 42 -17 76 -38 76 -5 0 -3 -5 4 -12z m22 -43 c0 -8 -4 -15 -10 -15 -5
0 -7 7 -4 15 4 8 8 15 10 15 2 0 4 -7 4 -15z"/>
<path d="M3705 6000 c10 -11 21 -20 25 -20 4 0 10 9 13 20 4 17 0 20 -25 20
-30 0 -31 0 -13 -20z"/>
<path d="M3583 5957 c-4 -6 -7 -27 -8 -45 0 -20 -7 -37 -17 -43 -14 -8 -16
-25 -16 -99 1 -49 5 -87 9 -84 5 3 9 -4 9 -16 0 -12 5 -18 10 -15 6 4 7 11 4
17 -4 6 -2 13 4 17 16 10 26 161 11 161 -10 0 -10 3 -2 11 6 6 9 19 6 28 -4
14 -3 14 6 1 8 -12 14 -13 29 -4 10 6 34 10 55 9 20 -2 37 1 37 6 0 5 -4 9 -9
9 -5 0 -14 14 -20 30 -11 32 -17 35 -40 21 -8 -5 -24 -6 -37 -1 -16 6 -26 5
-31 -3z m-6 -239 c-3 -7 -5 -2 -5 12 0 14 2 19 5 13 2 -7 2 -19 0 -25z"/>
<path d="M3030 5816 c0 -8 -6 -16 -12 -18 -10 -2 -7 -15 9 -48 17 -35 22 -40
23 -22 0 15 7 26 20 29 11 3 20 10 20 15 0 5 -4 6 -10 3 -6 -4 -10 7 -10 24 0
24 -4 31 -20 31 -11 0 -20 -6 -20 -14z"/>
<path d="M4945 5800 c-3 -5 -1 -11 5 -15 5 -3 10 -11 10 -16 0 -6 -5 -7 -11
-4 -5 4 -1 -10 10 -31 19 -35 37 -53 53 -54 4 0 12 15 19 34 9 24 17 32 27 28
10 -3 13 -1 8 6 -4 7 -20 12 -35 12 -16 0 -40 11 -54 24 -15 14 -29 21 -32 16z"/>
<path d="M3074 5726 c-4 -10 -2 -21 4 -25 6 -3 10 -14 9 -23 -1 -9 2 -18 7
-20 15 -5 15 31 1 59 -12 24 -15 25 -21 9z"/>
<path d="M7225 5703 c-11 -3 -24 -9 -29 -14 -6 -5 -25 -9 -42 -9 -18 0 -35 -3
-37 -7 -6 -10 67 -9 115 1 25 6 35 12 31 22 -3 8 -8 13 -12 13 -3 -1 -15 -3
-26 -6z"/>
<path d="M4706 5675 c4 -8 8 -15 10 -15 2 0 4 7 4 15 0 8 -4 15 -10 15 -5 0
-7 -7 -4 -15z"/>
<path d="M3107 5638 c-4 -12 -4 -24 -2 -27 3 -2 5 1 5 7 0 6 7 9 15 6 17 -7
18 -3 9 20 -9 23 -21 20 -27 -6z"/>
<path d="M7011 5633 c0 -11 3 -13 6 -5 2 6 10 9 15 6 7 -4 8 -2 4 4 -11 18
-26 14 -25 -5z"/>
<path d="M9952 5624 c-31 -14 -32 -15 -15 -33 10 -10 25 -21 33 -23 22 -7 50
10 44 26 -3 8 0 16 8 19 7 2 0 3 -17 1 -16 -1 -24 0 -17 3 13 5 17 24 5 22 -5
0 -23 -7 -41 -15z"/>
<path d="M4655 5599 c-6 -19 0 -38 9 -28 10 12 16 49 7 49 -5 0 -13 -9 -16
-21z"/>
<path d="M3136 5580 c6 -33 19 -49 37 -50 7 0 -12 41 -33 70 -9 11 -10 7 -4
-20z"/>
<path d="M3417 5593 c-4 -3 -2 -12 4 -20 9 -10 8 -13 -5 -13 -9 0 -16 7 -16
16 0 18 -22 14 -28 -6 -3 -7 0 -10 7 -6 7 5 11 -1 11 -13 0 -13 -5 -19 -14
-15 -9 4 -16 -4 -20 -23 -4 -16 -18 -41 -32 -56 -14 -15 -20 -27 -14 -27 5 0
10 -7 10 -15 0 -8 5 -15 10 -15 6 0 10 8 10 17 0 9 3 13 7 10 3 -4 13 -1 21 6
12 9 16 9 19 -1 3 -6 9 -10 13 -7 5 3 7 11 4 18 -5 15 20 70 29 61 3 -3 8 4
12 16 l7 21 18 -20 c20 -25 30 -27 30 -7 0 8 6 17 13 19 9 4 8 8 -3 16 -8 6
-19 6 -23 2 -5 -5 -21 4 -36 20 -16 16 -31 26 -34 22z"/>
<path d="M5002 5577 c-14 -29 -25 -108 -12 -87 8 13 11 12 24 -5 14 -18 15
-18 16 -2 0 9 4 17 9 17 20 0 17 49 -4 74 l-22 25 -11 -22z"/>
<path d="M4615 5560 c-4 -6 -11 -8 -16 -5 -5 4 -9 -1 -9 -10 0 -11 -5 -15 -15
-11 -14 5 -20 -6 -16 -28 1 -5 -8 -6 -19 -3 -15 4 -19 2 -12 -6 5 -7 11 -18
13 -25 6 -18 43 15 53 46 8 24 26 30 27 10 0 -12 17 19 18 35 1 11 -17 9 -24
-3z"/>
<path d="M8690 5520 c0 -5 5 -10 10 -10 6 0 10 5 10 10 0 6 -4 10 -10 10 -5 0
-10 -4 -10 -10z"/>
<path d="M3196 5502 c-2 -4 2 -18 10 -32 9 -18 13 -20 14 -8 0 9 -5 20 -10 23
-6 4 -8 11 -5 16 4 5 4 9 1 9 -3 0 -7 -3 -10 -8z"/>
<path d="M7038 5493 c7 -3 16 -2 19 1 4 3 -2 6 -13 5 -11 0 -14 -3 -6 -6z"/>
<path d="M4480 5472 c0 -5 7 -9 15 -9 8 0 15 4 15 9 0 4 -7 8 -15 8 -8 0 -15
-4 -15 -8z"/>
<path d="M3246 5445 c4 -8 8 -15 10 -15 2 0 4 7 4 15 0 8 -4 15 -10 15 -5 0
-7 -7 -4 -15z"/>
<path d="M8911 5393 c-21 -3 -30 -8 -23 -12 7 -4 -2 -8 -20 -8 -18 0 -55 -5
-83 -12 -27 -6 -66 -14 -85 -17 -19 -4 -39 -9 -45 -13 -5 -4 -28 -12 -50 -19
-108 -30 -190 -58 -193 -64 -2 -5 -8 -6 -12 -3 -5 3 -55 -10 -111 -30 -55 -19
-107 -35 -115 -35 -8 0 -37 -11 -64 -24 -28 -14 -65 -28 -83 -32 -17 -3 -38
-10 -47 -15 -8 -4 -53 -25 -100 -45 -46 -20 -105 -49 -130 -64 -25 -14 -52
-29 -61 -32 -8 -3 -60 -36 -115 -72 -248 -164 -257 -176 -269 -343 -5 -69 -4
-73 16 -73 14 0 19 -5 16 -15 -8 -19 13 -31 24 -14 7 11 9 11 9 -2 0 -19 1
-19 160 -17 69 1 141 2 161 2 21 0 48 -9 66 -22 19 -14 38 -20 49 -15 12 4 15
3 10 -6 -10 -15 142 -14 161 1 7 6 20 8 28 4 9 -3 13 -2 10 3 -3 5 -1 12 4 16
6 3 8 12 5 20 -4 8 -10 12 -15 9 -5 -3 -9 1 -9 8 0 9 -3 9 -10 -2 -7 -11 -10
-11 -10 -2 0 10 -17 12 -70 8 -38 -2 -72 -1 -75 3 -2 5 -17 6 -31 3 -21 -4
-26 -2 -22 10 4 8 -4 26 -17 40 -13 14 -21 29 -17 33 4 4 -13 4 -38 1 -155
-21 -221 -16 -250 19 -21 26 -23 72 -2 87 10 7 25 24 32 38 18 36 57 68 122
101 52 26 90 57 54 43 -65 -25 86 76 189 126 38 19 74 35 80 37 12 2 221 80
255 95 14 6 32 12 40 13 16 3 162 52 195 66 11 5 56 18 100 28 44 11 142 36
219 55 76 20 150 36 165 36 22 0 20 -4 -22 -25 -27 -14 -53 -23 -58 -19 -5 3
-9 0 -9 -6 0 -6 -14 -24 -31 -41 -17 -17 -28 -36 -25 -44 3 -8 0 -17 -5 -21
-16 -10 32 -39 66 -40 17 -1 36 3 43 9 7 5 15 7 19 4 3 -4 11 -3 17 2 6 5 28
14 49 20 20 7 37 17 37 23 0 6 7 7 15 4 17 -6 31 17 20 34 -5 8 -11 8 -21 -1
-8 -7 -14 -7 -14 -1 0 5 7 15 15 22 8 7 15 21 15 31 0 11 5 19 11 19 6 0 9 7
6 15 -4 8 -2 17 3 20 6 4 10 20 10 37 0 27 -3 30 -26 25 -17 -3 -29 1 -36 13
-7 10 -18 15 -26 12 -10 -3 -13 -1 -8 6 4 7 4 11 -1 10 -4 0 -23 -3 -42 -5z
m53 -78 c-4 -8 -11 -15 -16 -15 -6 0 -5 6 2 15 7 8 14 15 16 15 2 0 1 -7 -2
-15z m39 -55 c-3 -12 -8 -19 -11 -16 -5 6 5 36 12 36 2 0 2 -9 -1 -20z"/>
<path d="M7586 5265 c-19 -15 -19 -15 2 -15 13 0 22 6 22 15 0 18 0 18 -24 0z"/>
<path d="M7520 5224 c0 -8 5 -12 10 -9 6 3 10 10 10 16 0 5 -4 9 -10 9 -5 0
-10 -7 -10 -16z"/>
<path d="M1093 5215 c-3 -9 -18 -22 -34 -31 -17 -8 -29 -23 -29 -34 0 -11 -5
-20 -11 -20 -8 0 -8 -4 0 -14 6 -8 11 -18 9 -22 -3 -13 13 -88 21 -94 3 -3 15
-30 25 -60 10 -30 24 -62 31 -70 7 -8 15 -26 18 -40 9 -44 32 -95 46 -104 10
-6 11 -10 1 -16 -9 -6 -9 -12 0 -30 6 -12 9 -28 6 -35 -5 -13 19 -108 32 -130
7 -10 12 -24 71 -184 18 -47 38 -98 45 -115 8 -17 33 -76 56 -130 59 -137 239
-507 257 -528 8 -9 15 -23 17 -31 1 -8 8 -22 15 -31 7 -8 10 -20 7 -25 -4 -5
-2 -12 4 -16 6 -4 8 -11 5 -16 -4 -5 -1 -9 4 -9 6 0 11 -11 11 -25 0 -14 8
-29 19 -35 13 -6 17 -17 14 -30 -3 -12 0 -20 6 -20 7 0 10 -4 6 -9 -3 -5 0
-13 6 -16 5 -4 8 -13 5 -21 -3 -8 -1 -14 4 -14 6 0 10 -7 10 -15 0 -20 32 -85
42 -85 4 0 5 -7 2 -15 -4 -8 -1 -15 5 -15 6 0 11 -7 11 -15 0 -8 5 -15 10 -15
6 0 10 -6 10 -12 1 -19 47 -68 63 -68 8 0 17 -9 20 -20 3 -11 16 -24 29 -29
13 -5 35 -21 48 -35 14 -14 28 -26 32 -26 4 0 18 -11 32 -25 14 -14 34 -25 44
-25 11 0 23 -7 26 -16 3 -8 10 -13 15 -9 11 6 81 -25 81 -37 0 -4 7 -8 15 -8
8 0 15 -4 15 -9 0 -5 13 -12 29 -16 20 -4 28 -11 24 -21 -3 -8 1 -14 11 -14 9
0 16 -4 16 -10 0 -5 7 -7 14 -4 8 3 28 -6 43 -20 15 -15 37 -29 48 -32 11 -4
22 -10 25 -13 8 -10 127 -71 139 -71 6 0 20 -9 31 -20 11 -11 29 -20 40 -20
11 0 20 -4 20 -8 0 -5 12 -15 28 -23 15 -8 33 -20 41 -27 7 -7 22 -10 32 -7
12 4 18 2 17 -5 -3 -12 94 -70 117 -70 8 0 15 -4 15 -8 0 -10 61 -33 71 -26 5
3 9 1 9 -4 0 -5 15 -15 33 -22 48 -18 121 -52 127 -60 8 -11 71 -30 80 -25 4
3 10 -1 13 -8 3 -7 36 -26 73 -42 38 -16 71 -33 72 -37 2 -4 9 -8 16 -8 15 0
102 -45 190 -99 37 -22 72 -41 77 -41 5 0 9 -4 9 -10 0 -5 6 -10 14 -10 7 0
58 -22 112 -50 54 -27 102 -50 107 -50 5 0 39 -14 76 -31 160 -75 189 -88 231
-104 25 -9 55 -21 68 -26 13 -5 32 -9 43 -9 11 0 18 -4 15 -9 -6 -10 70 -24
84 -16 4 3 11 -1 14 -7 3 -9 8 -8 17 6 9 15 13 16 20 5 8 -11 12 -11 24 5 7
10 19 15 24 11 6 -3 14 1 17 10 4 9 12 14 19 11 7 -2 18 7 24 22 11 23 10 28
-11 44 -20 15 -24 15 -34 3 -6 -8 -16 -15 -23 -15 -14 0 -15 -27 -1 -35 6 -3
10 -11 10 -18 0 -6 -6 -4 -12 5 -7 9 -26 18 -43 21 -60 11 -118 28 -158 47
-22 11 -45 20 -50 20 -5 0 -41 15 -80 34 -110 52 -256 116 -265 116 -4 0 -38
16 -76 35 -39 19 -74 35 -78 35 -5 0 -43 22 -86 48 -91 57 -257 142 -278 142
-8 0 -14 3 -14 8 0 7 -90 52 -104 52 -3 0 -49 20 -100 45 -52 25 -102 45 -110
45 -9 0 -16 5 -16 10 0 6 -6 10 -14 10 -8 0 -31 8 -53 19 -21 10 -58 27 -83
37 -25 10 -68 33 -97 51 -29 18 -55 33 -58 33 -4 0 -19 8 -33 19 -59 41 -283
152 -294 145 -7 -4 -8 -3 -4 4 4 7 -21 25 -66 47 -40 20 -111 61 -158 90 -46
30 -87 52 -91 49 -4 -2 -9 0 -11 4 -4 11 -94 72 -106 72 -15 0 -114 117 -151
179 -18 29 -43 83 -56 120 -14 36 -40 97 -60 135 -19 38 -38 83 -41 100 -3 17
-9 33 -13 36 -4 3 -14 23 -21 45 -7 22 -44 105 -82 185 -86 178 -119 251 -143
310 -10 25 -26 65 -37 89 -28 64 -69 172 -75 201 -3 14 -9 27 -12 30 -7 5 -28
55 -61 140 -9 25 -20 52 -23 60 -3 8 -20 60 -37 115 -45 142 -70 214 -91 260
-44 98 -42 154 6 156 11 0 28 2 38 4 9 2 17 0 17 -4 0 -4 19 -16 43 -26 23
-10 48 -25 55 -32 19 -18 66 -17 59 1 -3 8 -1 17 6 20 7 2 0 5 -15 5 -16 1
-34 11 -46 26 -17 21 -24 23 -51 15 -19 -5 -31 -5 -31 1 0 5 5 9 11 9 5 0 7 5
4 10 -5 8 -11 7 -21 -1 -14 -11 -15 -10 -18 11 -1 13 -53 40 -77 40 -11 0 -22
-7 -26 -15z m637 -1816 c0 -5 -4 -9 -10 -9 -5 0 -10 7 -10 16 0 8 5 12 10 9 6
-3 10 -10 10 -16z"/>
<path d="M8735 5220 c-3 -5 1 -10 9 -10 9 0 16 5 16 10 0 6 -4 10 -9 10 -6 0
-13 -4 -16 -10z"/>
<path d="M9040 5210 c-13 -8 -12 -10 3 -10 9 0 17 5 17 10 0 12 -1 12 -20 0z"/>
<path d="M8678 5185 c2 -14 6 -25 7 -25 1 0 5 11 7 25 3 16 1 25 -7 25 -8 0
-10 -9 -7 -25z"/>
<path d="M9127 5191 c4 -14 -1 -21 -19 -24 -23 -4 -22 -4 2 -5 14 0 36 3 50 7
l25 7 -31 17 c-31 16 -32 16 -27 -2z"/>
<path d="M8652 5170 c0 -19 2 -27 5 -17 2 9 2 25 0 35 -3 9 -5 1 -5 -18z"/>
<path d="M8730 5190 c-8 -5 -12 -11 -10 -14 3 -2 14 2 24 10 22 15 10 19 -14
4z"/>
<path d="M9085 5190 c-3 -5 3 -10 15 -10 12 0 18 5 15 10 -3 6 -10 10 -15 10
-5 0 -12 -4 -15 -10z"/>
<path d="M1587 5179 c7 -7 15 -10 18 -7 3 3 -2 9 -12 12 -14 6 -15 5 -6 -5z"/>
<path d="M9686 5158 c-9 -12 -16 -17 -16 -11 0 18 -64 27 -91 12 -17 -9 -24
-9 -27 0 -6 17 -22 13 -22 -5 0 -12 -3 -14 -13 -6 -12 11 -60 8 -79 -4 -5 -3
-17 0 -26 8 -15 12 -16 11 -3 -5 8 -9 10 -21 6 -25 -4 -4 -10 -1 -12 6 -3 6
-13 12 -24 12 -10 0 -19 5 -19 10 0 13 -40 13 -60 0 -9 -5 -19 -5 -27 2 -16
13 -17 -4 -1 -20 9 -9 9 -12 -3 -12 -12 0 -12 -2 1 -10 13 -9 13 -11 0 -20
-11 -8 6 -10 58 -9 40 1 75 6 78 10 3 5 24 7 47 5 23 -2 48 1 55 6 8 7 12 7
12 -1 0 -7 4 -10 8 -7 4 2 58 6 119 7 98 3 112 5 116 21 3 10 12 18 21 18 9 0
16 8 16 20 0 23 -3 24 -30 8 -15 -10 -22 -10 -32 0 -18 18 -35 15 -52 -10z
m-346 -28 c0 -5 -5 -10 -11 -10 -5 0 -7 5 -4 10 3 6 8 10 11 10 2 0 4 -4 4
-10z"/>
<path d="M9040 5160 c0 -5 4 -10 9 -10 6 0 13 5 16 10 3 6 -1 10 -9 10 -9 0
-16 -4 -16 -10z"/>
<path d="M9175 5149 c-10 -14 -1 -21 19 -13 9 3 13 10 10 15 -7 12 -21 11 -29
-2z"/>
<path d="M9811 5148 c0 -7 4 -22 8 -32 7 -19 8 -18 14 4 3 13 4 27 1 32 -8 12
-24 10 -23 -4z"/>
<path d="M9848 5113 c7 -3 16 -2 19 1 4 3 -2 6 -13 5 -11 0 -14 -3 -6 -6z"/>
<path d="M10055 5095 c-57 -14 -69 -23 -54 -41 6 -8 16 -14 21 -14 6 0 6 6 -1
14 -23 27 9 29 34 2 25 -27 33 -30 51 -18 10 7 34 45 34 55 0 11 -48 12 -85 2z
m42 -47 c-3 -8 -6 -5 -6 6 -1 11 2 17 5 13 3 -3 4 -12 1 -19z"/>
<path d="M1375 5090 c-3 -5 3 -10 14 -10 12 0 21 5 21 10 0 6 -6 10 -14 10 -8
0 -18 -4 -21 -10z"/>
<path d="M1442 5075 c4 -20 1 -25 -16 -26 -15 0 -16 -2 -6 -6 8 -3 18 -11 22
-17 5 -7 8 -6 9 4 5 51 4 70 -4 70 -5 0 -7 -11 -5 -25z"/>
<path d="M3973 5073 c-24 -36 -28 -76 -10 -92 9 -7 13 -21 9 -33 -3 -13 -1
-19 5 -15 10 6 23 -43 23 -87 0 -15 -3 -16 -15 -6 -8 6 -19 9 -25 5 -5 -3 -10
-2 -10 4 0 19 -50 60 -65 55 -8 -4 -15 -10 -15 -15 0 -5 -9 -9 -21 -9 -11 0
-17 -4 -14 -10 3 -5 3 -11 -2 -11 -60 -9 -65 -8 -60 11 3 11 -5 33 -19 51 -16
23 -24 28 -24 16 0 -21 -16 -22 -24 -2 -3 8 -13 15 -23 15 -12 1 -8 6 12 16
26 12 27 14 5 9 -14 -2 -30 -5 -37 -5 -17 0 -5 -29 24 -59 25 -25 31 -47 11
-35 -7 4 -4 -2 6 -14 11 -12 15 -22 11 -22 -4 0 0 -9 10 -20 14 -16 21 -18 28
-8 6 9 7 8 3 -5 -4 -12 3 -27 19 -43 14 -14 25 -29 25 -34 0 -6 8 -10 18 -10
9 0 27 -18 40 -40 12 -22 18 -40 12 -40 -5 0 -9 -3 -8 -7 0 -5 -2 -16 -6 -26
-10 -21 0 -67 15 -67 6 0 8 15 4 38 -5 32 -4 35 7 19 42 -60 73 -73 61 -26 -6
20 -3 21 30 15 41 -8 51 2 37 38 -13 36 12 35 49 -1 23 -23 37 -28 79 -29 38
0 49 3 42 11 -6 7 -5 16 2 23 9 9 9 12 0 12 -9 0 -10 5 -4 16 12 21 -15 94
-35 94 -14 0 -31 35 -37 79 -9 66 -19 111 -24 106 -3 -2 -11 8 -19 23 -13 25
-13 28 12 49 14 13 21 23 15 23 -6 0 -8 5 -5 10 10 16 -15 40 -41 40 -13 0
-24 5 -24 10 0 20 -29 9 -47 -17z m-213 -167 c0 -3 -4 -8 -10 -11 -5 -3 -10
-1 -10 4 0 6 5 11 10 11 6 0 10 -2 10 -4z m-17 -43 c-7 -2 -19 -2 -25 0 -7 3
-2 5 12 5 14 0 19 -2 13 -5z m7 -28 c-7 -8 -17 -12 -23 -8 -6 4 -3 9 9 14 27
11 28 11 14 -6z m190 -104 c7 -17 10 -36 7 -43 -2 -7 -12 4 -21 26 -19 45 -19
46 -7 46 5 0 14 -13 21 -29z m-20 -37 c0 -8 -4 -12 -10 -9 -5 3 -10 10 -10 16
0 5 5 9 10 9 6 0 10 -7 10 -16z m200 -18 c0 -3 -4 -8 -10 -11 -5 -3 -10 -1
-10 4 0 6 5 11 10 11 6 0 10 -2 10 -4z m10 -51 c0 -8 -4 -15 -10 -15 -5 0 -10
7 -10 15 0 8 5 15 10 15 6 0 10 -7 10 -15z"/>
<path d="M858 5058 c4 -16 2 -19 -9 -13 -11 6 -12 5 -1 -6 6 -7 12 -24 12 -38
1 -26 1 -26 14 4 10 24 13 26 19 12 3 -9 2 -17 -3 -17 -6 0 -10 -9 -10 -19 0
-11 -5 -23 -10 -26 -11 -7 12 -35 28 -35 6 0 13 -7 16 -16 9 -23 8 -24 -10
-17 -12 4 -15 2 -12 -8 3 -8 11 -13 17 -11 6 1 11 -11 11 -27 0 -39 22 -89 38
-84 18 7 15 31 -5 36 -17 4 -17 5 0 6 21 1 22 17 1 25 -14 5 -14 9 -3 22 11
13 10 17 -3 25 -9 5 -19 27 -23 49 -4 22 -11 38 -15 35 -5 -3 -12 -1 -15 5 -4
6 -1 9 7 8 9 -2 12 5 10 22 -1 14 -4 32 -5 42 -1 9 -8 15 -18 13 -12 -3 -15 2
-12 16 4 13 0 19 -10 19 -11 0 -13 -6 -9 -22z"/>
<path d="M1485 5069 c4 -6 -1 -17 -11 -24 -16 -12 -16 -14 -3 -15 8 0 20 5 27
12 9 9 12 8 12 -4 0 -19 27 -32 32 -16 3 7 -3 19 -12 28 -20 20 -54 35 -45 19z"/>
<path d="M1358 5063 c7 -3 16 -2 19 1 4 3 -2 6 -13 5 -11 0 -14 -3 -6 -6z"/>
<path d="M9930 5060 c-8 -5 -11 -12 -7 -16 4 -4 15 0 24 9 18 18 8 23 -17 7z"/>
<path d="M1556 5045 c4 -8 8 -15 10 -15 2 0 4 7 4 15 0 8 -4 15 -10 15 -5 0
-7 -7 -4 -15z"/>
<path d="M9862 5052 c-12 -2 -20 -8 -17 -13 4 -5 1 -9 -4 -9 -6 0 -11 4 -11 8
0 14 -272 -42 -384 -79 -83 -28 -116 -47 -116 -67 0 -13 -2 -14 -9 -4 -7 11
-10 10 -15 -3 -10 -27 -7 -33 22 -47 16 -9 68 -15 132 -17 108 -3 124 -6 115
-22 -4 -5 2 -9 12 -10 10 0 13 -3 6 -6 -7 -2 -13 -15 -13 -28 0 -19 8 -26 37
-34 42 -12 57 -4 59 32 1 12 4 32 7 45 3 12 2 22 -4 22 -5 0 -9 9 -9 20 0 18
-5 20 -39 16 -22 -2 -44 -7 -50 -10 -5 -4 -16 3 -25 15 -8 12 -19 18 -25 15
-5 -4 -12 -2 -16 4 -3 5 1 10 10 10 8 0 18 6 21 14 3 8 26 17 52 20 26 4 72
14 102 23 30 9 63 16 72 15 9 0 19 6 22 14 3 9 10 12 16 9 6 -4 46 5 90 20 44
15 84 24 90 20 5 -3 10 1 10 9 0 18 -45 22 -55 6 -9 -15 -35 -12 -35 3 0 14
-8 15 -48 9z"/>
<path d="M1570 5015 c0 -2 9 -9 20 -15 16 -9 20 -8 20 5 0 8 -9 15 -20 15 -11
0 -20 -2 -20 -5z"/>
<path d="M1556 4991 c-3 -5 1 -11 9 -14 9 -4 12 -1 8 9 -6 16 -10 17 -17 5z"/>
<path d="M4070 4991 c0 -6 4 -13 10 -16 6 -3 7 1 4 9 -7 18 -14 21 -14 7z"/>
<path d="M1636 4977 c-17 -12 -17 -14 -2 -20 9 -4 16 -2 16 4 0 6 7 9 14 6 10
-4 13 -1 9 9 -6 17 -14 18 -37 1z"/>
<path d="M1720 4970 c0 -5 7 -10 16 -10 8 0 12 5 9 10 -3 6 -10 10 -16 10 -5
0 -9 -4 -9 -10z"/>
<path d="M4113 4955 c0 -8 4 -15 9 -15 4 0 8 4 8 9 0 6 -4 12 -8 15 -5 3 -9
-1 -9 -9z"/>
<path d="M1745 4948 c-18 -7 -18 -8 3 -4 16 3 22 1 19 -8 -3 -7 -2 -17 1 -22
9 -11 79 -44 95 -44 7 0 24 -6 39 -14 19 -10 29 -11 37 -3 8 8 11 6 11 -6 0
-11 6 -17 18 -15 10 2 16 -2 14 -10 -1 -8 3 -12 10 -10 7 3 38 -6 68 -20 104
-46 162 -63 176 -51 11 9 16 6 22 -11 6 -16 32 -32 92 -56 46 -19 85 -34 87
-34 1 0 10 14 18 31 16 30 16 31 -4 24 -15 -4 -21 -2 -21 8 0 12 -9 14 -42 10
-29 -4 -39 -3 -34 5 7 11 -13 17 -38 13 -5 -1 -6 8 -3 19 3 14 1 20 -6 17 -7
-2 -11 -12 -11 -21 1 -9 -4 -16 -12 -16 -8 0 -13 3 -12 8 2 4 -6 17 -16 29
-18 20 -21 21 -48 7 -25 -13 -29 -13 -35 1 -4 12 -13 15 -32 10 l-26 -6 23 19
c21 16 22 20 8 31 -8 7 -21 11 -28 8 -8 -4 -7 -6 5 -6 26 -1 20 -21 -7 -21
-15 0 -26 7 -29 20 -4 17 -9 19 -32 10 -33 -12 -45 -13 -25 0 17 10 14 15 -19
25 -16 5 -21 4 -17 -4 5 -7 -1 -11 -15 -11 -18 0 -19 3 -9 15 6 8 9 19 5 25
-9 15 -25 12 -19 -4 5 -14 -24 -31 -35 -20 -3 4 0 9 6 11 10 4 9 8 -2 19 -8 9
-19 13 -23 10 -5 -3 -20 1 -35 9 -14 7 -28 11 -31 7 -3 -3 -6 2 -6 12 0 9 -4
15 -9 12 -5 -4 -20 -2 -33 3 -13 5 -32 5 -43 -1z m165 -58 c10 0 11 -3 3 -11
-12 -12 -63 -2 -63 13 0 6 10 8 23 4 12 -3 29 -6 37 -6z m162 -72 c-6 -6 -15
-8 -19 -4 -4 4 -1 11 7 16 19 12 27 3 12 -12z m345 -144 c-3 -3 -12 -4 -19 -1
-8 3 -5 6 6 6 11 1 17 -2 13 -5z"/>
<path d="M1688 4943 c7 -3 16 -2 19 1 4 3 -2 6 -13 5 -11 0 -14 -3 -6 -6z"/>
<path d="M4111 4914 c0 -11 3 -14 6 -6 3 7 2 16 -1 19 -3 4 -6 -2 -5 -13z"/>
<path d="M3495 4890 c3 -6 -1 -13 -9 -16 -9 -3 -16 -13 -16 -21 0 -9 6 -13 15
-9 18 7 20 -10 3 -17 -10 -4 -9 -8 2 -16 8 -6 12 -11 8 -11 -3 0 3 -32 14 -71
11 -39 18 -73 15 -75 -6 -6 -67 45 -67 57 0 15 -44 54 -57 51 -7 -2 -13 5 -13
15 0 11 -3 14 -10 7 -25 -25 62 -194 145 -281 l60 -63 36 13 c23 8 34 17 31
26 -3 8 0 11 7 7 24 -15 11 84 -25 181 -48 132 -53 142 -73 136 -12 -4 -13 -3
-2 5 15 11 4 39 -25 63 -16 12 -17 12 -11 -3 4 -12 2 -15 -7 -12 -8 3 -12 14
-9 25 3 11 0 19 -6 19 -7 0 -9 -5 -6 -10z"/>
<path d="M6287 4844 c-12 -14 -30 -35 -39 -45 -10 -10 -18 -24 -18 -30 0 -5
-5 -7 -10 -4 -7 4 -8 -3 -4 -21 5 -19 2 -31 -8 -38 -17 -13 -30 -54 -18 -61 4
-2 15 4 25 15 9 10 24 19 33 19 49 3 62 6 62 18 0 7 7 13 15 13 20 0 37 36 41
86 3 43 -5 55 -39 67 -13 5 -25 -1 -40 -19z m48 -114 c3 -5 1 -10 -4 -10 -6 0
-11 5 -11 10 0 6 2 10 4 10 3 0 8 -4 11 -10z"/>
<path d="M3150 4845 c0 -8 -4 -15 -10 -15 -12 0 -13 -20 -1 -38 7 -11 16 -15
50 -21 3 -1 -4 -8 -15 -16 -10 -8 -16 -15 -12 -15 4 0 3 -11 -2 -25 -6 -15 -6
-26 0 -30 6 -4 11 0 12 7 0 7 2 18 3 23 2 6 3 15 4 20 1 6 8 -1 16 -15 14 -25
14 -24 15 18 0 33 4 42 18 42 9 0 13 3 7 8 -6 4 -16 19 -24 34 -8 15 -18 25
-22 22 -4 -2 -10 0 -14 6 -9 15 -25 12 -25 -5z"/>
<path d="M3226 4761 c-3 -5 -1 -22 5 -38 5 -17 9 -36 7 -44 -2 -8 3 -13 11
-11 7 1 19 -2 27 -9 11 -9 13 -4 10 25 -2 33 -16 64 -16 37 0 -7 -4 -9 -10 -6
-5 3 -10 15 -10 25 0 21 -16 35 -24 21z"/>
<path d="M3130 4750 c0 -5 5 -10 10 -10 6 0 10 5 10 10 0 6 -4 10 -10 10 -5 0
-10 -4 -10 -10z"/>
<path d="M950 4730 c-11 -20 -4 -31 16 -23 8 3 11 10 7 16 -4 6 2 8 17 4 17
-4 20 -3 12 5 -19 19 -41 18 -52 -2z"/>
<path d="M974 4666 c2 -29 36 -84 36 -57 0 6 5 11 10 11 6 0 10 -9 10 -21 0
-11 -3 -18 -7 -16 -5 3 -8 -6 -8 -19 0 -13 3 -24 8 -24 4 0 7 -6 7 -14 0 -8 4
-17 9 -20 5 -3 6 8 2 27 -9 41 -3 69 12 60 7 -3 4 3 -5 14 -10 11 -18 25 -18
31 0 7 -4 12 -10 12 -5 0 -10 -8 -10 -17 0 -15 -2 -16 -10 -3 -5 9 -5 19 2 27
7 9 6 17 -5 28 -22 21 -25 19 -23 -19z"/>
<path d="M9470 4676 c-88 -14 -120 -29 -120 -57 0 -24 58 -52 93 -45 12 3 65
8 117 12 166 11 170 11 170 -7 0 -12 -7 -15 -25 -11 -14 2 -25 0 -25 -7 0 -6
-18 -14 -40 -17 -22 -4 -40 -10 -40 -14 0 -4 -21 -11 -47 -15 -26 -4 -76 -17
-112 -30 -36 -13 -97 -31 -136 -41 -38 -9 -72 -20 -75 -24 -3 -4 -16 -10 -30
-14 -19 -6 -21 -5 -10 3 24 17 -9 14 -44 -4 -15 -8 -31 -13 -35 -11 -4 3 -13
1 -21 -4 -8 -5 -21 -5 -31 0 -12 7 -24 4 -43 -11 -21 -17 -29 -19 -41 -9 -12
10 -15 9 -15 -9 0 -18 -3 -19 -27 -10 -23 9 -30 7 -44 -12 -15 -21 -17 -21
-26 -4 -6 11 -15 15 -23 10 -9 -6 -9 -9 1 -16 11 -7 9 -9 -6 -9 -17 0 -17 -2
-5 -10 13 -8 12 -10 -2 -10 -10 0 -18 -4 -18 -10 0 -21 -18 -9 -24 15 -4 15
-17 30 -32 35 -13 5 -27 17 -30 25 -10 24 -96 18 -224 -16 -63 -17 -125 -30
-137 -30 -13 1 -23 -4 -23 -9 0 -6 -12 -11 -27 -11 -17 -1 -21 -3 -10 -6 9 -2
17 -8 17 -13 0 -4 -9 -6 -20 -3 -11 3 -20 9 -20 14 0 17 -17 9 -28 -13 -6 -13
-11 -18 -11 -11 -1 7 -7 10 -15 7 -8 -3 -17 -1 -21 5 -11 19 -25 12 -25 -11
-1 -20 -2 -21 -13 -7 -7 8 -20 18 -29 22 -10 3 -18 11 -18 16 0 5 -11 12 -25
15 -31 8 -75 -28 -75 -61 0 -19 5 -23 29 -23 16 0 31 -5 33 -10 2 -6 26 -13
53 -16 46 -4 90 2 205 28 25 5 54 12 65 14 130 29 238 43 255 34 11 -6 20 -7
20 -3 0 4 4 2 9 -6 11 -18 71 -17 83 1 6 10 10 10 18 -2 8 -12 12 -12 18 -2 6
8 18 11 34 7 16 -4 29 -2 33 5 5 9 1 10 -16 5 -20 -7 -21 -6 -9 6 16 16 110
20 110 5 0 -4 7 -3 15 4 8 7 12 16 9 21 -3 5 2 6 11 2 10 -3 21 0 26 8 6 9 9
10 9 2 0 -7 -8 -17 -17 -22 -16 -9 -16 -10 -1 -11 26 0 47 11 44 23 -1 7 -1 9
1 5 3 -5 19 -7 36 -7 18 1 24 3 15 6 -10 2 -18 9 -18 14 0 13 52 2 62 -13 5
-9 8 -6 8 10 0 12 5 22 10 22 6 0 10 -9 10 -21 0 -11 5 -17 10 -14 6 3 10 1
10 -4 0 -6 -4 -11 -10 -11 -5 0 -9 -3 -9 -7 3 -21 -2 -33 -16 -33 -8 0 -15 -4
-15 -10 0 -5 4 -10 8 -10 4 0 9 -14 10 -30 2 -26 -5 -35 -44 -63 -119 -82
-206 -187 -172 -208 10 -7 10 -13 -1 -31 -12 -19 -11 -24 6 -37 10 -9 22 -23
25 -32 8 -19 70 -30 110 -18 38 10 42 -3 12 -36 -55 -59 -60 -132 -13 -181 26
-27 29 -35 20 -53 -15 -28 -18 -115 -5 -132 14 -17 24 -68 15 -74 -8 -4 0 -70
25 -238 8 -54 12 -102 9 -107 -4 -6 0 -13 8 -16 11 -4 14 -27 13 -112 -1 -59
2 -112 7 -119 5 -7 11 -41 13 -75 5 -57 9 -96 14 -123 1 -5 6 4 10 20 l8 30 2
-30 2 -30 8 30 c40 144 45 190 43 400 -1 142 -6 201 -23 280 -27 123 -28 132
-31 279 -2 82 -7 123 -16 132 -15 15 -8 61 14 82 7 7 13 20 13 28 0 8 4 13 8
10 12 -7 35 62 25 76 -4 7 -8 16 -8 20 0 4 -8 16 -17 28 -14 16 -30 20 -75 20
-71 0 -94 12 -75 37 6 10 15 25 19 33 3 8 29 37 57 65 28 27 50 55 48 63 -2 7
6 16 17 19 12 3 21 10 21 15 0 5 7 8 16 6 11 -2 17 5 20 24 1 15 -1 30 -5 33
-13 8 0 55 15 55 8 0 14 5 14 11 0 6 8 8 19 4 11 -3 25 1 34 9 8 8 26 18 41
22 14 3 26 12 26 20 0 8 9 14 20 14 25 0 73 21 83 37 4 7 13 13 19 13 7 0 31
9 54 20 23 12 52 23 65 25 39 8 128 55 162 87 18 16 44 32 60 35 22 4 27 11
27 35 0 16 -6 30 -12 33 -31 9 -208 14 -256 6 -48 -7 -80 0 -50 12 7 3 4 6 -7
6 -11 1 -29 3 -40 5 -11 3 -54 -1 -95 -8z"/>
<path d="M2500 4673 c0 -5 4 -15 10 -23 11 -18 25 -7 17 15 -6 15 -27 21 -27
8z"/>
<path d="M2472 4654 c-27 -30 43 -68 76 -42 13 11 15 10 10 -4 -5 -11 0 -18
15 -22 12 -3 24 -1 25 4 2 6 11 10 19 10 12 0 13 -3 4 -14 -15 -18 3 -31 39
-28 18 2 21 0 11 -6 -9 -7 -3 -11 23 -14 28 -3 35 -1 32 9 -4 11 -1 11 15 3
16 -9 18 -15 9 -25 -13 -16 -6 -21 43 -30 35 -7 37 -6 37 18 0 14 -7 27 -15
31 -9 3 -15 0 -15 -8 0 -8 6 -16 13 -19 6 -2 0 -4 -15 -4 -16 0 -28 3 -28 8 0
5 5 9 10 9 6 0 10 5 10 10 0 6 -7 10 -16 10 -9 0 -12 5 -8 12 5 8 -3 9 -29 5
-23 -3 -37 -2 -37 5 0 5 -7 8 -15 4 -9 -3 -15 0 -15 10 0 10 -6 14 -14 11 -8
-3 -19 5 -26 19 -16 28 -37 31 -43 7 -4 -15 -6 -15 -12 5 -9 26 -8 26 -46 7
-30 -16 -30 -16 -41 22 -2 7 -7 6 -16 -3z"/>
<path d="M3156 4645 c-3 -9 0 -15 9 -15 8 0 15 7 15 15 0 8 -4 15 -9 15 -5 0
-11 -7 -15 -15z"/>
<path d="M3250 4640 c0 -5 5 -10 10 -10 6 0 10 5 10 10 0 6 -4 10 -10 10 -5 0
-10 -4 -10 -10z"/>
<path d="M6580 4612 c0 -4 -17 -15 -37 -25 -29 -13 -39 -14 -46 -4 -5 8 -7 2
-4 -15 4 -29 -13 -44 -32 -25 -8 8 -11 5 -11 -11 0 -15 -8 -24 -25 -28 -14 -3
-22 -11 -18 -17 4 -6 0 -8 -11 -4 -14 6 -15 3 -6 -13 9 -16 8 -20 -5 -20 -8 0
-15 4 -15 10 0 5 -11 0 -25 -12 -14 -12 -25 -30 -25 -40 0 -10 -5 -18 -10 -18
-18 0 -53 -38 -45 -49 5 -10 -14 -16 -37 -12 -5 0 -8 -10 -8 -24 0 -14 -4 -26
-10 -26 -20 -3 -25 -4 -39 -13 -12 -8 -11 -11 5 -18 15 -6 13 -7 -7 -3 -26 5
-67 -24 -53 -38 3 -3 -4 -10 -15 -17 -12 -6 -21 -20 -21 -30 0 -11 -5 -20 -11
-20 -5 0 -7 5 -4 10 9 15 -4 12 -21 -4 -8 -8 -14 -22 -14 -30 0 -9 -6 -13 -14
-10 -8 3 -17 1 -21 -5 -3 -6 1 -11 9 -11 9 0 16 -5 16 -11 0 -5 -4 -7 -10 -4
-5 3 -10 -1 -10 -9 0 -9 -6 -16 -13 -16 -7 0 -18 -14 -24 -31 -11 -28 -10 -30
10 -27 13 2 29 17 39 38 10 20 18 28 18 18 0 -27 9 -22 60 30 25 26 82 81 126
123 43 42 97 97 119 122 22 26 46 46 53 47 6 0 12 9 12 21 0 11 4 18 9 15 9
-6 35 20 44 46 9 24 68 48 85 35 9 -7 16 -7 24 1 9 9 9 12 0 12 -10 0 -10 4 0
19 10 17 31 29 60 35 20 4 18 19 -6 41 -29 26 -36 30 -36 17z m-25 -72 c-3 -5
-10 -10 -16 -10 -5 0 -9 5 -9 10 0 6 7 10 16 10 8 0 12 -4 9 -10z m-205 -120
c0 -5 -2 -10 -4 -10 -3 0 -8 5 -11 10 -3 6 -1 10 4 10 6 0 11 -4 11 -10z"/>
<path d="M3278 4603 c7 -3 16 -2 19 1 4 3 -2 6 -13 5 -11 0 -14 -3 -6 -6z"/>
<path d="M6590 4515 c-7 -8 -9 -15 -6 -15 4 0 14 7 22 15 9 8 11 15 6 15 -5 0
-15 -7 -22 -15z"/>
<path d="M2874 4507 c3 -10 6 -21 6 -23 0 -2 9 -4 20 -4 18 0 26 -16 21 -44
-1 -5 5 -6 14 -2 8 3 22 9 30 12 11 4 15 -1 15 -17 1 -19 12 -29 53 -47 29
-13 68 -32 88 -43 20 -10 44 -19 53 -19 9 0 16 -4 16 -10 0 -5 3 -9 8 -8 11 2
100 -41 107 -52 3 -5 12 -7 20 -3 8 3 15 0 15 -5 0 -6 25 -20 56 -32 31 -11
75 -29 98 -39 22 -10 97 -40 166 -66 69 -27 140 -57 158 -67 18 -10 39 -18 47
-18 8 0 15 -4 15 -9 0 -5 13 -12 30 -16 16 -4 43 -19 60 -35 16 -15 30 -25 30
-22 0 4 4 1 9 -7 5 -8 9 -34 9 -57 0 -49 8 -67 25 -57 8 5 8 2 -1 -9 -10 -12
-9 -21 2 -43 8 -15 12 -34 9 -41 -3 -8 -1 -20 4 -27 12 -15 37 -105 59 -212 8
-44 26 -111 39 -150 13 -38 38 -126 55 -195 49 -194 127 -464 149 -517 11 -26
30 -79 41 -118 12 -38 32 -104 46 -145 13 -41 29 -88 33 -105 36 -122 117
-337 138 -367 19 -29 33 -38 54 -38 15 0 30 4 34 10 9 15 -6 61 -18 53 -5 -3
-7 -1 -4 4 4 6 0 27 -8 47 -8 20 -22 60 -30 88 -25 91 -87 273 -95 278 -7 5
-55 179 -67 245 l-6 29 27 -18 c22 -14 30 -15 42 -5 11 9 14 9 14 -1 0 -18 24
-35 119 -81 133 -64 177 -64 109 0 -32 30 -148 97 -148 85 0 -3 -14 5 -31 17
-26 18 -33 19 -41 8 -8 -11 -9 -11 -5 3 6 18 -18 32 -35 22 -6 -4 -17 1 -24
11 -7 10 -19 15 -27 12 -18 -7 -50 50 -66 118 -7 28 -19 66 -26 85 -25 63
-105 396 -98 404 3 2 30 2 61 -1 40 -4 69 0 96 11 38 16 41 16 75 -7 81 -52
132 -70 189 -63 96 11 128 53 120 157 -3 35 -7 70 -9 78 -3 8 7 17 24 22 16 4
40 20 54 35 25 27 25 29 18 138 -4 61 -9 138 -10 171 -2 61 -7 85 -29 140 -7
17 -22 57 -33 90 -31 87 -47 129 -53 135 -3 3 -24 31 -48 63 -40 54 -68 75
-56 42 4 -8 1 -15 -5 -15 -8 0 -7 -8 3 -22 9 -12 16 -32 16 -45 0 -12 4 -24
10 -28 5 -3 7 -12 3 -20 -3 -9 0 -22 7 -30 7 -9 10 -18 7 -21 -3 -3 -1 -20 5
-37 27 -89 56 -271 58 -372 3 -94 1 -105 -17 -105 -41 -1 -48 -21 -51 -129 -1
-57 -4 -107 -7 -110 -11 -10 -119 19 -139 38 -27 24 -92 45 -108 34 -24 -15
-83 -33 -111 -33 -53 0 -159 69 -149 98 2 7 -5 12 -15 12 -14 0 -15 2 -4 9 9
6 10 11 2 15 -6 4 -9 11 -6 16 3 5 0 20 -6 32 -7 13 -14 30 -15 38 -8 51 -17
76 -35 88 -13 9 -18 20 -14 33 4 10 2 19 -3 19 -6 0 -13 11 -16 25 -4 14 -10
24 -14 21 -4 -2 -8 7 -9 21 0 14 -5 28 -11 32 -12 7 -25 65 -24 104 0 15 -6
44 -15 64 -11 29 -17 33 -25 22 -7 -11 -8 -9 -4 6 5 17 -9 28 -102 72 -109 53
-332 143 -355 143 -7 0 -17 4 -23 8 -10 9 -95 37 -106 34 -3 -1 -12 5 -18 13
-7 8 -16 15 -21 15 -12 0 -142 61 -149 70 -3 3 -15 7 -27 8 -45 3 -53 5 -53
15 0 5 -7 6 -16 3 -24 -9 -54 3 -54 21 0 9 -6 13 -15 9 -8 -3 -15 -1 -15 5 0
7 -10 9 -25 5 -20 -5 -25 -3 -25 11 0 10 -4 14 -8 8 -13 -18 -31 -15 -37 5 -5
15 -12 19 -30 14 -16 -4 -27 0 -35 13 -11 17 -11 17 -6 0z m136 -87 c0 -5 -4
-10 -10 -10 -5 0 -10 5 -10 10 0 6 5 10 10 10 6 0 10 -4 10 -10z m195 -60 c3
-6 -1 -7 -9 -4 -18 7 -21 14 -7 14 6 0 13 -4 16 -10z m1295 -1740 c0 -5 -4
-10 -10 -10 -5 0 -10 5 -10 10 0 6 5 10 10 10 6 0 10 -4 10 -10z"/>
<path d="M2837 4496 c-6 -16 2 -28 14 -20 12 7 11 34 0 34 -5 0 -11 -6 -14
-14z"/>
<path d="M6570 4479 c0 -7 -9 -9 -21 -6 -15 4 -19 2 -15 -9 3 -9 -1 -14 -12
-14 -15 -1 -15 -2 2 -15 10 -7 16 -20 13 -27 -4 -10 -6 -10 -6 1 -1 11 -4 11
-16 1 -12 -10 -15 -9 -15 4 0 10 -5 14 -10 11 -6 -4 -8 -11 -4 -16 8 -13 -24
-49 -44 -49 -8 0 -12 -6 -9 -14 3 -8 0 -17 -8 -19 -31 -12 -52 -97 -24 -97 4
0 6 -6 3 -14 -7 -19 23 -28 48 -15 11 6 36 12 55 14 20 2 40 9 44 17 7 11 9
11 9 -1 0 -11 3 -11 15 -1 21 18 19 39 -11 81 -18 26 -32 36 -45 34 -20 -4
-27 19 -9 30 6 3 10 0 10 -7 0 -7 7 0 15 16 8 15 15 36 15 45 0 9 9 22 20 29
21 13 27 32 10 32 -5 0 -10 -5 -10 -11z m-80 -139 c0 -5 -5 -10 -11 -10 -5 0
-7 5 -4 10 3 6 8 10 11 10 2 0 4 -4 4 -10z"/>
<path d="M2895 4461 c-3 -5 -1 -12 5 -16 5 -3 10 1 10 9 0 18 -6 21 -15 7z"/>
<path d="M8121 4340 c-20 -4 -21 -7 -9 -17 8 -7 19 -8 27 -4 21 13 9 28 -18
21z"/>
<path d="M7445 4307 c-22 -5 -47 -11 -55 -14 -8 -4 -17 -7 -20 -8 -3 -1 -12
-5 -20 -8 -8 -4 -26 -8 -40 -10 -14 -2 -32 -6 -40 -10 -8 -3 -49 -17 -90 -32
-143 -52 -255 -98 -282 -117 -15 -10 -30 -17 -35 -16 -12 4 -113 -44 -113 -54
0 -4 -8 -8 -17 -8 -10 -1 -29 -7 -43 -16 l-25 -15 25 5 c14 3 19 3 12 0 -6 -3
-10 -9 -7 -13 2 -5 -7 -6 -22 -3 -18 3 -24 1 -19 -7 4 -6 1 -11 -7 -11 -21 0
-28 -47 -9 -55 9 -3 20 -1 26 5 5 5 18 10 28 10 11 0 35 8 56 18 50 25 161 57
169 49 3 -4 -2 -16 -12 -27 -12 -13 -14 -20 -5 -20 7 0 10 -7 6 -15 -3 -8 -1
-15 5 -15 6 0 7 -5 3 -11 -5 -8 1 -10 18 -6 14 4 33 1 45 -8 28 -20 55 -21
134 -6 53 10 69 18 79 37 8 13 23 24 34 24 27 1 81 44 72 58 -4 7 15 21 46 36
l53 25 -47 -3 c-40 -3 -48 0 -56 20 -10 20 -14 21 -49 12 -21 -5 -49 -11 -63
-13 -14 -2 -36 -6 -50 -10 -75 -18 182 89 325 136 39 13 72 27 73 31 2 4 10 8
18 8 19 0 18 34 -1 50 -12 10 -15 10 -15 0 0 -9 -6 -9 -22 2 -17 11 -33 12
-63 5z m-461 -294 c-5 -5 -12 -12 -16 -18 -4 -6 -8 -2 -8 8 0 9 7 17 17 17 9
0 12 -3 7 -7z m-279 -71 c-3 -3 -11 0 -18 7 -9 10 -8 11 6 5 10 -3 15 -9 12
-12z"/>
<path d="M5865 4200 c-3 -5 -1 -10 4 -10 6 0 11 5 11 10 0 6 -2 10 -4 10 -3 0
-8 -4 -11 -10z"/>
<path d="M5857 4150 c-3 -11 -1 -20 4 -20 5 0 9 9 9 20 0 11 -2 20 -4 20 -2 0
-6 -9 -9 -20z"/>
<path d="M7488 4103 c7 -3 16 -2 19 1 4 3 -2 6 -13 5 -11 0 -14 -3 -6 -6z"/>
<path d="M5773 4045 c-3 -9 -3 -18 -1 -21 3 -3 8 4 11 16 6 23 -1 27 -10 5z"/>
<path d="M5910 3991 c0 -6 5 -13 10 -16 6 -3 10 1 10 9 0 9 -4 16 -10 16 -5 0
-10 -4 -10 -9z"/>
<path d="M7233 3892 c-39 -20 -47 -62 -12 -62 16 0 94 18 105 24 1 1 5 11 9
24 6 20 4 22 -18 17 -14 -4 -28 -2 -31 4 -9 14 -14 13 -53 -7z"/>
<path d="M3896 3878 c-10 -40 -7 -68 10 -75 11 -4 12 -8 4 -13 -8 -5 -6 -21 8
-56 11 -27 23 -71 27 -99 4 -27 11 -58 16 -67 5 -10 15 -48 23 -85 20 -97 100
-407 124 -478 25 -73 44 -146 77 -290 14 -60 29 -119 34 -130 21 -52 51 -154
57 -195 8 -50 46 -158 82 -230 5 -8 19 -49 32 -90 12 -41 27 -84 32 -95 11
-24 47 -49 56 -40 12 11 8 141 -4 156 -7 8 -15 30 -19 49 -4 19 -13 48 -21 65
-47 111 -46 108 -94 285 -17 63 -35 131 -41 150 -12 44 -30 127 -35 162 -2 15
-24 88 -49 162 -25 74 -54 174 -66 223 -11 48 -37 142 -56 208 -20 66 -39 135
-43 153 -9 35 -46 136 -61 164 -5 10 -9 28 -9 40 0 13 -7 36 -15 52 -8 15 -15
35 -15 43 0 9 -6 13 -15 9 -12 -4 -14 0 -9 19 4 18 2 25 -9 25 -8 0 -17 -10
-21 -22z m34 -48 c0 -5 -2 -10 -4 -10 -3 0 -8 5 -11 10 -3 6 -1 10 4 10 6 0
11 -4 11 -10z m540 -1855 c0 -14 -4 -25 -9 -25 -4 0 -6 11 -3 25 2 14 6 25 8
25 2 0 4 -11 4 -25z"/>
<path d="M4950 3860 c0 -6 7 -10 15 -10 8 0 15 2 15 4 0 2 -7 6 -15 10 -8 3
-15 1 -15 -4z"/>
<path d="M4920 3845 c-11 -13 -10 -14 4 -9 9 3 16 10 16 15 0 13 -6 11 -20 -6z"/>
<path d="M4990 3840 c0 -5 7 -10 15 -10 8 0 15 -4 15 -10 0 -5 6 -10 14 -10 8
0 16 -7 20 -15 8 -22 31 -18 33 5 1 15 -7 21 -33 26 -19 3 -37 10 -40 15 -7
12 -24 11 -24 -1z"/>
<path d="M5105 3790 c-3 -5 4 -14 16 -20 27 -15 30 -10 8 12 -10 10 -21 13
-24 8z"/>
<path d="M5175 3770 c27 -12 43 -12 25 0 -8 5 -22 9 -30 9 -10 0 -8 -3 5 -9z"/>
<path d="M5455 3750 c-10 -11 -21 -17 -25 -15 -14 9 -62 -43 -63 -69 -1 -14
-6 -26 -11 -26 -5 0 -7 -3 -3 -6 3 -3 -6 -17 -20 -30 -14 -13 -22 -28 -17 -35
4 -8 3 -9 -5 -5 -6 4 -14 0 -18 -11 -3 -10 -21 -37 -40 -60 -35 -44 -63 -56
-63 -27 0 11 -5 14 -16 10 -10 -4 -22 1 -30 11 -12 16 -13 16 -14 2 0 -21 -70
-17 -82 5 -5 8 -15 13 -23 10 -8 -4 -15 -1 -15 5 0 13 -56 15 -65 2 -5 -8 26
-33 45 -36 40 -8 82 -21 112 -36 21 -11 46 -19 58 -19 26 0 27 -32 1 -68 -47
-68 -131 -270 -131 -316 0 -28 35 -71 58 -71 14 0 17 -11 18 -65 4 -151 35
-192 166 -220 32 -6 60 -16 63 -21 4 -5 31 -21 62 -35 53 -26 61 -27 165 -21
80 5 118 12 146 27 126 68 261 118 282 105 5 -3 10 -2 10 3 0 12 39 28 235 97
88 31 180 64 205 74 25 10 73 26 108 36 34 10 62 22 62 28 0 5 9 7 21 4 13 -3
28 2 40 14 15 15 16 19 4 19 -8 0 -15 5 -15 11 0 7 9 5 24 -5 23 -15 25 -14
30 4 3 11 9 30 12 41 4 14 2 19 -5 15 -7 -5 -9 -1 -5 9 5 11 2 14 -10 9 -11
-4 -15 -13 -11 -25 7 -22 -13 -26 -21 -5 -7 18 -84 10 -100 -10 -6 -8 -14 -11
-17 -8 -5 6 -55 -7 -102 -25 -11 -5 -78 -27 -150 -50 -71 -23 -138 -46 -147
-52 -10 -5 -23 -9 -30 -9 -7 0 -35 -11 -63 -25 -27 -13 -55 -25 -61 -25 -6 0
-26 -8 -45 -17 -19 -10 -40 -18 -47 -19 -7 -1 -25 -10 -40 -20 -15 -10 -34
-19 -42 -21 -12 -1 -77 -20 -137 -39 -7 -2 -13 -11 -13 -21 0 -15 -2 -16 -10
-3 -7 12 -16 13 -55 2 -63 -17 -130 -15 -149 3 -9 9 -23 31 -32 50 -9 19 -20
35 -25 35 -5 0 -9 7 -9 15 0 8 -3 15 -6 15 -11 0 -34 -29 -34 -43 0 -15 -12
-17 -75 -17 -31 0 -46 7 -64 27 -21 24 -23 34 -18 83 4 31 13 72 21 92 20 46
36 148 24 148 -5 0 -6 5 -3 10 11 17 -10 11 -33 -10 -12 -12 -22 -18 -22 -14
0 4 -9 -1 -19 -10 -11 -10 -22 -13 -25 -8 -6 9 24 95 47 137 6 11 21 38 33 60
31 58 87 148 101 163 6 6 14 21 18 31 3 11 12 22 19 24 8 3 19 23 26 44 19 64
44 113 60 118 8 3 21 14 28 25 10 17 10 20 -3 20 -21 0 -19 9 8 31 17 14 18
18 6 19 -9 0 -24 -9 -34 -20z"/>
<path d="M5158 3743 c7 -3 16 -2 19 1 4 3 -2 6 -13 5 -11 0 -14 -3 -6 -6z"/>
<path d="M7257 3113 c-2 -2 -17 -5 -33 -7 -62 -9 -249 -49 -254 -55 -3 -3 -14
-7 -25 -9 -44 -6 -105 -25 -105 -33 0 -5 -7 -9 -16 -9 -10 0 -14 -6 -11 -14 3
-7 0 -13 -6 -13 -44 1 -57 -4 -57 -23 0 -23 -18 -33 -64 -34 -17 -1 -34 -5
-38 -11 -4 -5 -17 -4 -32 5 -29 15 -42 9 -33 -15 5 -11 20 -15 56 -15 27 0 51
-5 53 -10 2 -6 30 -18 63 -26 33 -9 65 -19 70 -24 6 -4 22 -10 38 -14 15 -4
52 -18 82 -31 29 -14 60 -25 67 -25 7 0 45 -11 83 -25 52 -18 71 -29 73 -44 5
-32 -15 -59 -55 -72 -21 -6 -47 -18 -58 -25 -11 -8 -27 -14 -36 -14 -8 0 -47
-15 -85 -34 -38 -18 -87 -39 -109 -46 -22 -7 -44 -15 -50 -19 -5 -3 -12 -6
-15 -7 -3 0 -16 -6 -30 -12 -14 -6 -59 -25 -100 -42 -41 -17 -88 -37 -105 -45
-16 -7 -57 -21 -90 -31 -33 -10 -61 -22 -63 -26 -2 -5 -11 -8 -20 -8 -9 0 -53
-18 -97 -39 -71 -35 -155 -64 -345 -118 -30 -8 -91 -28 -135 -43 -44 -16 -111
-36 -150 -45 -79 -18 -103 -26 -192 -66 -104 -47 -126 -55 -183 -69 -30 -7
-59 -16 -65 -20 -11 -8 -124 -35 -190 -45 -22 -4 -79 -22 -126 -41 -48 -19
-93 -34 -102 -34 -12 0 -32 -41 -28 -58 1 -7 106 -12 124 -6 9 3 17 12 17 21
0 11 6 14 24 9 14 -3 30 -1 38 6 7 7 22 15 33 16 11 2 24 8 29 12 5 5 22 6 37
3 35 -7 82 4 74 17 -3 6 1 7 10 4 8 -4 21 -1 28 4 7 6 22 10 33 10 21 -2 113
21 129 32 6 4 24 11 40 15 43 12 51 15 145 58 51 23 78 32 185 59 22 5 63 18
90 28 64 22 190 63 283 90 39 11 72 25 72 31 0 6 4 8 8 5 10 -6 133 31 142 42
7 10 69 39 112 52 21 6 40 16 43 21 4 5 16 9 29 9 12 0 26 3 30 7 4 5 11 8 14
9 4 0 25 8 47 18 41 19 132 55 150 60 34 10 65 27 65 37 0 6 9 9 20 6 14 -3
26 3 40 21 10 15 20 21 20 15 0 -24 120 15 120 39 0 4 17 10 38 14 49 9 129
40 162 64 15 11 30 16 34 13 4 -4 4 1 0 12 -6 15 -4 17 9 12 28 -11 54 70 48
151 -1 27 -32 42 -151 72 -47 12 -98 28 -115 35 -67 30 -120 44 -145 38 -38
-7 -75 13 -59 33 11 14 2 19 -23 15 -5 0 -8 3 -8 8 0 14 28 21 52 12 17 -6 26
-4 34 8 9 11 15 12 25 5 15 -12 83 -1 209 32 111 29 166 29 270 3 8 -2 17 -7
20 -10 3 -3 26 -9 51 -12 l45 -6 -4 30 c-3 22 -7 27 -13 18 -7 -11 -9 -11 -9
1 0 8 -9 21 -21 28 -13 9 -19 20 -16 32 8 30 -14 40 -82 38 -33 -1 -63 -3 -64
-5z m-457 -253 c0 -5 -7 -7 -15 -4 -8 4 -15 8 -15 10 0 2 7 4 15 4 8 0 15 -4
15 -10z m120 -404 c0 -3 -4 -8 -10 -11 -5 -3 -10 -1 -10 4 0 6 5 11 10 11 6 0
10 -2 10 -4z m-1853 -662 c-3 -3 -12 -4 -19 -1 -8 3 -5 6 6 6 11 1 17 -2 13
-5z m-227 -54 c0 -5 -4 -10 -10 -10 -5 0 -10 5 -10 10 0 6 5 10 10 10 6 0 10
-4 10 -10z"/>
<path d="M6740 3071 c0 -5 7 -11 15 -15 9 -3 15 0 15 9 0 8 -7 15 -15 15 -8 0
-15 -4 -15 -9z"/>
<path d="M7470 3003 c0 -12 9 -27 20 -33 26 -14 60 -4 60 17 0 15 -2 14 -18 0
-17 -16 -20 -15 -40 10 -21 26 -22 26 -22 6z"/>
<path d="M7604 2969 c-3 -6 -17 -8 -29 -5 -13 3 -26 2 -29 -3 -3 -5 15 -12 40
-16 25 -3 48 -13 51 -21 3 -8 11 -14 18 -14 7 0 16 -6 18 -12 3 -8 6 -6 6 5 1
9 -4 17 -10 17 -6 0 -8 9 -4 20 6 18 3 20 -19 14 -21 -5 -25 -3 -20 10 7 18
-11 22 -22 5z"/>
<path d="M6656 2945 c4 -8 11 -15 16 -15 6 0 5 6 -2 15 -7 8 -14 15 -16 15 -2
0 -1 -7 2 -15z"/>
<path d="M7580 2931 c0 -5 7 -11 15 -15 8 -3 15 -1 15 3 0 5 -7 11 -15 15 -8
3 -15 1 -15 -3z"/>
<path d="M7699 2938 c-9 -29 -2 -47 19 -53 13 -3 27 -4 30 0 3 3 -2 5 -11 5
-16 0 -21 11 -18 38 2 10 -17 19 -20 10z"/>
<path d="M7752 2910 c10 -6 14 -18 11 -30 -4 -16 0 -20 20 -20 14 0 32 -7 41
-15 17 -17 36 -20 36 -5 0 5 15 9 34 7 30 -2 33 -4 24 -20 -8 -17 -7 -17 12
-7 25 13 42 4 20 -10 -17 -11 0 -13 24 -4 19 7 21 24 3 24 -7 0 -18 9 -25 21
-10 16 -19 19 -39 14 -16 -4 -29 -1 -34 6 -6 10 -11 10 -22 0 -10 -8 -17 -9
-22 -1 -3 5 -3 10 2 10 19 1 -24 20 -44 20 -13 0 -23 5 -23 10 0 6 -8 10 -17
10 -17 -1 -17 -1 -1 -10z"/>
<path d="M8000 2813 c0 -4 5 -15 10 -23 8 -13 10 -13 10 2 0 9 -4 20 -10 23
-5 3 -10 3 -10 -2z"/>
<path d="M8030 2790 c0 -5 11 -10 25 -10 26 0 34 -15 13 -22 -8 -3 -6 -7 5
-11 23 -9 29 6 11 31 -15 22 -54 31 -54 12z"/>
<path d="M8110 2774 c0 0 12 -11 27 -23 21 -19 25 -20 19 -6 -4 10 -2 21 4 25
7 4 -2 7 -19 6 -17 -1 -31 -1 -31 -2z"/>
<path d="M8240 2706 c0 -2 7 -6 15 -10 8 -3 15 -1 15 4 0 6 -7 10 -15 10 -8 0
-15 -2 -15 -4z"/>
<path d="M8290 2692 c0 -4 9 -13 21 -20 19 -12 19 -11 9 8 -10 19 -30 28 -30
12z"/>
<path d="M8330 2690 c0 -5 5 -10 10 -10 6 0 10 5 10 10 0 6 -4 10 -10 10 -5 0
-10 -4 -10 -10z"/>
<path d="M6894 2653 c-32 -8 -67 -19 -79 -26 -11 -7 -65 -30 -120 -52 -55 -21
-104 -42 -110 -45 -5 -4 -26 -11 -45 -15 -19 -4 -44 -15 -54 -24 -11 -9 -16
-10 -12 -3 11 18 7 17 -89 -23 -16 -7 -48 -18 -70 -25 -22 -7 -53 -18 -70 -25
-59 -25 -201 -73 -230 -78 -16 -3 -43 -11 -60 -18 -16 -7 -37 -13 -45 -15 -8
-2 -29 -5 -47 -9 -17 -3 -71 -18 -120 -34 -48 -16 -116 -36 -150 -46 -35 -10
-63 -22 -63 -27 0 -5 -4 -7 -9 -4 -15 9 -83 -23 -75 -36 5 -7 3 -8 -5 -3 -11
6 -68 -10 -126 -35 -11 -5 -59 -23 -106 -39 -47 -16 -99 -36 -116 -44 -47 -25
-163 -67 -184 -67 -10 0 -32 -13 -50 -30 l-33 -29 29 -11 c34 -13 75 -6 160
26 11 4 22 8 25 9 3 1 18 7 33 13 16 7 33 12 38 12 5 0 9 5 9 11 0 5 5 7 11 4
15 -10 70 15 62 28 -3 5 -2 7 4 4 11 -7 167 46 257 86 32 15 65 27 72 27 8 0
22 5 32 10 9 6 55 22 102 36 47 13 99 29 115 34 17 6 68 19 115 31 47 12 99
27 115 34 17 8 48 17 70 21 22 4 63 18 92 31 30 12 58 23 64 23 5 0 38 13 72
28 34 16 103 41 152 57 118 37 218 72 283 101 29 13 56 24 59 24 15 0 103 44
103 52 0 4 12 5 28 2 21 -4 34 1 60 25 35 34 40 43 17 35 -8 -4 -15 -1 -15 4
0 13 -21 12 -96 -5z"/>
<path d="M8415 2640 c3 -5 13 -10 21 -10 8 0 12 5 9 10 -3 6 -13 10 -21 10 -8
0 -12 -4 -9 -10z"/>
<path d="M8560 2600 c0 -5 -7 -10 -17 -10 -19 0 -9 -13 12 -16 9 -1 15 6 15
17 0 10 -2 19 -5 19 -3 0 -5 -4 -5 -10z"/>
<path d="M8595 2580 c-3 -5 -1 -10 4 -10 6 0 11 5 11 10 0 6 -2 10 -4 10 -3 0
-8 -4 -11 -10z"/>
<path d="M8635 2569 c-11 -16 -1 -19 13 -3 7 8 8 14 3 14 -5 0 -13 -5 -16 -11z"/>
<path d="M8653 2547 c0 -8 11 -14 29 -14 15 0 28 4 28 9 0 4 -6 8 -14 8 -8 0
-21 2 -29 5 -7 3 -14 0 -14 -8z"/>
<path d="M8720 2530 c0 -5 5 -10 10 -10 6 0 10 5 10 10 0 6 -4 10 -10 10 -5 0
-10 -4 -10 -10z"/>
<path d="M4940 2396 c-15 -15 -12 -23 10 -29 13 -3 24 3 34 18 14 22 14 23
-10 21 -14 0 -29 -5 -34 -10z"/>
<path d="M5005 2379 c-4 -5 1 -12 9 -15 9 -3 16 -12 16 -20 0 -8 6 -14 14 -14
11 0 12 5 3 25 -13 27 -33 39 -42 24z"/>
<path d="M9200 2370 c0 -5 5 -10 10 -10 6 0 10 5 10 10 0 6 -4 10 -10 10 -5 0
-10 -4 -10 -10z"/>
<path d="M4715 1780 c3 -5 8 -10 11 -10 2 0 4 5 4 10 0 6 -5 10 -11 10 -5 0
-7 -4 -4 -10z"/>
<path d="M4670 1755 c0 -8 2 -15 4 -15 2 0 6 7 10 15 3 8 1 15 -4 15 -6 0 -10
-7 -10 -15z"/>
</g>
</svg>
